<svg xmlns="http://www.w3.org/2000/svg" width="125.875" height="121.625" viewBox="0 0 2014 1946">
  <defs>
    <style>
      .cls-1 {
        fill: #b9862b;
        fill-rule: evenodd;
      }
    </style>
  </defs>
  <path class="cls-1" d="M1821,225c-4.02.635-7.76,2.707-11,4l-7,1v1h-3v1h-3v1h-3v1h-3v1l-6,1v1h-3v1h-3v1h-3v1h-4v1l-6,1v1h-3v1h-3v1h-3v1h-3v1h-3v1l-9,2v1l-7,1v1l-6,1v1h-3v1h-3v1h-3v1h-3v1h-3v1l-6,1v1h-4v1l-9,2c-12.53,5.015-27.42,8.973-40,14h-3v1h-3v1h-3v1h-3v1h-3v1l-7,1c-15.48,6.137-33.49,10.807-49,17h-3v1h-3v1h-3v1h-3v1h-4v1l-9,2c-11.56,4.612-25.41,8.385-37,13l-6,1v1h-3v1h-3v1h-3v1h-4v1l-6,1v1c-3.04,2.74-1.51,5.825-3,10h-1v3h-1c-0.67,2-1.33,4-2,6h-1v2h-1v2h-1c-0.33,1-.67,2-1,3h1v1l6-4c0.33-.667.67-1.333,1-2h2l3-4c0.67-.333,1.33-0.667,2-1v-2c1.33-1,2.67-2,4-3v-2c1.33-1,2.67-2,4-3,0.33-1,.67-2,1-3h2c-1.07,5.528-5.59,11.511-8,16v2h-1v2h-1v2h-1v2h-1v2h-1v2h-1v2c-0.67.333-1.33,0.667-2,1v2c-1.45,2.571-3.18,4.506-4,8h2c2.15-3.751,6.06-5.092,9-8q6.495-7,13-14l6-5v-2c1.67-1.333,3.33-2.667,5-4v-2l3-2c2.58-3.642,3.01-7.654,8-9v1c-3.1,2.8-3.91,8.083-6,12h-1v2h-1v2h-1v2h-1v2h-1v2h-1v2h-1v2c-0.67.333-1.33,0.667-2,1-0.67,2-1.33,4-2,6-0.67.333-1.33,0.667-2,1-0.33,1.333-.67,2.667-1,4-0.67.333-1.33,0.667-2,1-0.33,1.333-.67,2.667-1,4-0.67.333-1.33,0.667-2,1v2c-0.67.333-1.33,0.667-2,1v2h-1v2h-1c-0.91,1.379-.68,1.755-1,4h1q4.995-6,10-12l3-2v-2q3.495-3,7-6v-2l6-5v-2c1.67-1.333,3.33-2.667,5-4v-2c1.33-1,2.67-2,4-3v-2c1.33-1,2.67-2,4-3v-2l3-2v-2l3-2v-2l3-2v-2h1c1.37-1.483.51-1.319,3-2-0.82,4.141-3.31,6.872-5,10-0.33,1.333-.67,2.667-1,4-0.67.333-1.33,0.667-2,1v2h-1v2h-1v2h-1v2h-1v2c-0.67.333-1.33,0.667-2,1-0.67,2-1.33,4-2,6-0.67.333-1.33,0.667-2,1-0.33,1.333-.67,2.667-1,4h-1c-0.33,1-.67,2-1,3-0.67.333-1.33,0.667-2,1-0.33,1.333-.67,2.667-1,4h-1c-0.33,1-.67,2-1,3-0.67.333-1.33,0.667-2,1v2c-0.67.333-1.33,0.667-2,1v2c-0.67.333-1.33,0.667-2,1v2c-0.67.333-1.33,0.667-2,1v2c-0.67.333-1.33,0.667-2,1v2c-0.67.333-1.33,0.667-2,1v2h-1c-0.93,1.369-.67,1.765-1,4h1q5.505-6,11-12c0.67-.333,1.33-0.667,2-1a149.82,149.82,0,0,1,16-18l6-5v-2q4.005-3.5,8-7v-2c1.67-1.333,3.33-2.667,5-4v-2c1.33-1,2.67-2,4-3v-2c1.33-1,2.67-2,4-3v-2l3-2v-2l3-2v-2c0.67-.333,1.33-0.667,2-1v-2h1c0.33-1,.67-2,1-3h2c-0.67,2-1.33,4-2,6h-1v2c-0.67.333-1.33,0.667-2,1v2h-1v2h-1v2h-1v2h-1v2c-0.67.333-1.33,0.667-2,1-0.33,1.333-.67,2.667-1,4-0.67.333-1.33,0.667-2,1v2h-1v2c-0.67.333-1.33,0.667-2,1v2h-1c-0.33,1-.67,2-1,3-0.67.333-1.33,0.667-2,1v2h-1c-0.33,1-.67,2-1,3-0.67.333-1.33,0.667-2,1v2l-3,2v2c-0.67.333-1.33,0.667-2,1v2l-3,2v2c-0.67.333-1.33,0.667-2,1v2c-0.67.333-1.33,0.667-2,1-0.33,1-.67,2-1,3l-3,2v2c-0.67.333-1.33,0.667-2,1v2l-3,2v2h-1c-0.33,1-.67,2-1,3-0.67.333-1.33,0.667-2,1v2l-3,2v2c-0.67.333-1.33,0.667-2,1v2c-0.67.333-1.33,0.667-2,1v2h-1c-0.33,1-.67,2-1,3h2c1.54-2.672,3.92-3.919,6-6q7.5-7.5,15-15c9.11-9.11,18.37-18.449,26-29q4.005-3.5,8-7v-2h1c0.67-1,1.33-2,2-3l3-2v-2c1.67-1.333,3.33-2.667,5-4v-2c1.67-1.333,3.33-2.667,5-4v-2l3-2v-2c0.67-.333,1.33-0.667,2-1l3-5h1v3c-3.13,2.113-4.05,5.645-6,9h-1v2c-0.67.333-1.33,0.667-2,1v2c-0.67.333-1.33,0.667-2,1v2c-0.67.333-1.33,0.667-2,1v2h-1c-0.33,1-.67,2-1,3-0.67.333-1.33,0.667-2,1v2l-3,2v2c-0.67.333-1.33,0.667-2,1-0.33,1-.67,2-1,3h-1v2c-0.67.333-1.33,0.667-2,1v2c-0.67.333-1.33,0.667-2,1v2c-0.67.333-1.33,0.667-2,1v2c-0.67.333-1.33,0.667-2,1v2c-0.67.333-1.33,0.667-2,1v2c-0.67.333-1.33,0.667-2,1v2h-1c-0.33,1-.67,2-1,3-0.67.333-1.33,0.667-2,1v2l-3,2v2c-0.67.333-1.33,0.667-2,1v2c-0.67.333-1.33,0.667-2,1v2c-0.67.333-1.33,0.667-2,1v2c-0.67.333-1.33,0.667-2,1-0.33,1.333-.67,2.667-1,4-0.67.333-1.33,0.667-2,1v2c-0.67.333-1.33,0.667-2,1v2c-0.67.333-1.33,0.667-2,1v2c-0.67.333-1.33,0.667-2,1-0.33,1.333-.67,2.667-1,4-0.67.333-1.33,0.667-2,1a16.361,16.361,0,0,0-3,8h1c2.78-4.85,8.14-8.132,12-12q4.005-5,8-10c1.67-1.333,3.33-2.667,5-4v-2q3.495-3,7-6v-2c0.67-.333,1.33-0.667,2-1v-1l3-2v-2c0.67-.333,1.33-0.667,2-1,0.67-1,1.33-2,2-3h1v-2c1.67-1.333,3.33-2.667,5-4v-2c1.33-1,2.67-2,4-3v-2c1.33-1,2.67-2,4-3v-2c1.33-1,2.67-2,4-3v-2l3-2v-2c1.33-1,2.67-2,4-3v-2l3-2v-2l3-2v-2l3-2v-2c0.67-.333,1.33-0.667,2-1v-2c0.67-.333,1.33-0.667,2-1,0.33-1,.67-2,1-3h1c0.33-1,.67-2,1-3h2c-0.33,1-.67,2-1,3h-1v2h-1v2c-0.67.333-1.33,0.667-2,1v2h-1v2c-0.67.333-1.33,0.667-2,1-0.67,2-1.33,4-2,6-0.67.333-1.33,0.667-2,1-0.33,1.333-.67,2.667-1,4-0.67.333-1.33,0.667-2,1-0.67,2-1.33,4-2,6-0.67.333-1.33,0.667-2,1-0.33,1.333-.67,2.667-1,4-0.67.333-1.33,0.667-2,1-0.33,1.333-.67,2.667-1,4-0.67.333-1.33,0.667-2,1-0.67,2-1.33,4-2,6-0.67.333-1.33,0.667-2,1v2h-1v2c-0.67.333-1.33,0.667-2,1-0.67,2-1.33,4-2,6-0.67.333-1.33,0.667-2,1-0.33,1.333-.67,2.667-1,4-0.67.333-1.33,0.667-2,1-0.33,1.333-.67,2.667-1,4-0.67.333-1.33,0.667-2,1-0.33,1.333-.67,2.667-1,4-0.67.333-1.33,0.667-2,1-0.33,1.333-.67,2.667-1,4-0.67.333-1.33,0.667-2,1v2h-1v2c-0.67.333-1.33,0.667-2,1-0.33,1.333-.67,2.667-1,4-0.67.333-1.33,0.667-2,1-0.33,1.333-.67,2.667-1,4-0.67.333-1.33,0.667-2,1-0.33,1.333-.67,2.667-1,4-0.67.333-1.33,0.667-2,1-0.33,1.333-.67,2.667-1,4-0.67.333-1.33,0.667-2,1v2c-0.67.333-1.33,0.667-2,1-0.33,1.333-.67,2.667-1,4-0.67.333-1.33,0.667-2,1v2h-1c-0.93,1.37-.67,1.765-1,4h1q4.995-5.5,10-11c0.67-.333,1.33-0.667,2-1v-2l9-8v-2l6-5v-2c1.67-1.333,3.33-2.667,5-4v-2c1.33-1,2.67-2,4-3v-2c1.33-1,2.67-2,4-3v-2c1.33-1,2.67-2,4-3v-2l3-2v-2c1.33-1,2.67-2,4-3v-2l3-2v-2l3-2v-2c0.67-.333,1.33-0.667,2-1v-2c0.67-.333,1.33-0.667,2-1,0.33-1,.67-2,1-3l3-2v-2c0.67-.333,1.33-0.667,2-1v-2l3-2v-2c0.67-.333,1.33-0.667,2-1v-2l3-2v-2c0.67-.333,1.33-0.667,2-1v-2h1c0.33-1,.67-2,1-3,0.67-.333,1.33-0.667,2-1v-2l3-2v-2c0.67-.333,1.33-0.667,2-1,0.33-1,.67-2,1-3h1v-2c0.67-.333,1.33-0.667,2-1v-2c0.67-.333,1.33-0.667,2-1v-2c0.67-.333,1.33-0.667,2-1v-2c0.67-.333,1.33-0.667,2-1,0.33-1.333.67-2.667,1-4,0.67-.333,1.33-0.667,2-1v-2c0.67-.333,1.33-0.667,2-1v-2c0.67-.333,1.33-0.667,2-1v-2h1v-2h1c0.33-1,.67-2,1-3h2c-0.77,4.138-3.32,6.886-5,10-0.33,1.333-.67,2.667-1,4h-1c-0.33,1.333-.67,2.667-1,4h-1v2h-1v2h-1v2h-1v2h-1v2h-1c-0.33,1.333-.67,2.667-1,4-0.67.333-1.33,0.667-2,1v2h-1v2h-1v2h-1v2c-0.67.333-1.33,0.667-2,1-0.67,2-1.33,4-2,6-0.67.333-1.33,0.667-2,1v2h-1v2c-0.67.333-1.33,0.667-2,1-0.67,2-1.33,4-2,6-0.67.333-1.33,0.667-2,1-0.33,1.333-.67,2.667-1,4h-1c-0.33,1-.67,2-1,3-0.67.333-1.33,0.667-2,1v2h-1v2c-0.67.333-1.33,0.667-2,1-0.33,1.333-.67,2.667-1,4h-1c-0.33,1-.67,2-1,3-0.67.333-1.33,0.667-2,1-0.33,1.333-.67,2.667-1,4h-1c-0.33,1-.67,2-1,3-0.67.333-1.33,0.667-2,1-0.33,1.333-.67,2.667-1,4-0.67.333-1.33,0.667-2,1v2c-0.67.333-1.33,0.667-2,1v2c-0.67.333-1.33,0.667-2,1v2c-0.67.333-1.33,0.667-2,1-0.33,1.333-.67,2.667-1,4h-1c-0.33,1-.67,2-1,3-0.67.333-1.33,0.667-2,1v2c-0.67.333-1.33,0.667-2,1-0.33,1-.67,2-1,3h-1c-0.33,1.333-.67,2.667-1,4h-1c-0.33,1-.67,2-1,3-0.67.333-1.33,0.667-2,1v2c-0.67.333-1.33,0.667-2,1v2c-0.67.333-1.33,0.667-2,1v2c-0.67.333-1.33,0.667-2,1v2c-0.67.333-1.33,0.667-2,1-0.33,1.333-.67,2.667-1,4-0.67.333-1.33,0.667-2,1v2c-0.67.333-1.33,0.667-2,1v2h-1c-0.92,1.366-.69,1.762-1,4h1q5.505-6.5,11-13l3-2v-2q3.495-3,7-6v-2q3.495-3,7-6v-2c1.67-1.333,3.33-2.667,5-4v-2c1.67-1.333,3.33-2.667,5-4v-2c0.67-.333,1.33-0.667,2-1v-1c0.67-.333,1.33-0.667,2-1v-2c1.33-1,2.67-2,4-3v-2c1.33-1,2.67-2,4-3v-2l3-2v-2l3-2v-2l3-2v-2l3-2c0.33-1,.67-2,1-3,0.67-.333,1.33-0.667,2-1v-2c0.67-.333,1.33-0.667,2-1v-2l3-2v-2c0.67-.333,1.33-0.667,2-1,0.33-1,.67-2,1-3h1v-2c0.67-.333,1.33-0.667,2-1v-2c0.67-.333,1.33-0.667,2-1v-2c0.67-.333,1.33-0.667,2-1v-2c0.67-.333,1.33-0.667,2-1v-2c0.67-.333,1.33-0.667,2-1v-2c0.67-.333,1.33-0.667,2-1,0.33-1.333.67-2.667,1-4,0.67-.333,1.33-0.667,2-1,0.33-1,.67-2,1-3h1c0.67-2,1.33-4,2-6,0.67-.333,1.33-0.667,2-1v-2h1v-2c0.67-.333,1.33-0.667,2-1v-2h1v-2h1v-2h1v-2h1v-2c0.67-.333,1.33-0.667,2-1q3.495-8,7-16h2q-2.505,8-5,16h-1c-0.33,1.333-.67,2.667-1,4h-1v3h-1v2h-1c-0.33,1.667-.67,3.333-1,5h-1c-0.67,2-1.33,4-2,6h-1v2h-1c-0.33,1.333-.67,2.667-1,4h-1c-0.33,1.667-.67,3.333-1,5-0.67.333-1.33,0.667-2,1-0.33,1.333-.67,2.667-1,4h-1v2h-1v2h-1v2h-1v2h-1c-0.33,1.333-.67,2.667-1,4-0.67.333-1.33,0.667-2,1v2h-1v2h-1v2h-1v2c-0.67.333-1.33,0.667-2,1-0.67,2-1.33,4-2,6-0.67.333-1.33,0.667-2,1-0.33,1.333-.67,2.667-1,4-0.67.333-1.33,0.667-2,1-0.33,1.333-.67,2.667-1,4-0.67.333-1.33,0.667-2,1-0.33,1.333-.67,2.667-1,4-0.67.333-1.33,0.667-2,1-0.33,1.333-.67,2.667-1,4-0.67.333-1.33,0.667-2,1v2h-1v2h-1c-0.33,1-.67,2-1,3-0.67.333-1.33,0.667-2,1-0.33,1.333-.67,2.667-1,4h-1c-0.33,1-.67,2-1,3-0.67.333-1.33,0.667-2,1-0.33,1.333-.67,2.667-1,4-0.67.333-1.33,0.667-2,1v2c-0.67.333-1.33,0.667-2,1v2c-0.67.333-1.33,0.667-2,1v2c-0.67.333-1.33,0.667-2,1-0.33,1.333-.67,2.667-1,4-0.67.333-1.33,0.667-2,1v2c-0.67.333-1.33,0.667-2,1v2c-0.67.333-1.33,0.667-2,1v2c-0.67.333-1.33,0.667-2,1-0.33,1.333-.67,2.667-1,4-0.67.333-1.33,0.667-2,1v2c-0.67.333-1.33,0.667-2,1v2c-0.67.333-1.33,0.667-2,1v2c-0.67.333-1.33,0.667-2,1-0.33,1.333-.67,2.667-1,4-2.42,3.792-6.67,6.979-8,12h2l6-8,3-2v-2c0.67-.333,1.33-0.667,2-1v-1c0.67-.333,1.33-0.667,2-1v-2c1.67-1.333,3.33-2.667,5-4v-2c0.67-.333,1.33-0.667,2-1,0.33-1,.67-2,1-3,1.33-1,2.67-2,4-3v-2c1.33-1,2.67-2,4-3v-2l3-2v-2l3-2v-2l3-2v-2l3-2v-2l3-2v-2l3-2v-2c0.67-.333,1.33-0.667,2-1v-2l3-2v-2c0.67-.333,1.33-0.667,2-1v-2l3-2v-2c0.67-.333,1.33-0.667,2-1,0.33-1,.67-2,1-3h1v-2c0.67-.333,1.33-0.667,2-1v-2c0.67-.333,1.33-0.667,2-1v-2c0.67-.333,1.33-0.667,2-1v-2c0.67-.333,1.33-0.667,2-1v-2c0.67-.333,1.33-0.667,2-1v-2c0.67-.333,1.33-0.667,2-1v-2c0.67-.333,1.33-0.667,2-1v-2c0.67-.333,1.33-0.667,2-1v-2c0.67-.333,1.33-0.667,2-1v-2c0.67-.333,1.33-0.667,2-1,0.33-1.333.67-2.667,1-4,0.67-.333,1.33-0.667,2-1v-2c0.67-.333,1.33-0.667,2-1,0.33-1.333.67-2.667,1-4h1c0.33-1,.67-2,1-3,0.67-.333,1.33-0.667,2-1,0.33-1.333.67-2.667,1-4h1c0.33-1,.67-2,1-3,0.67-.333,1.33-0.667,2-1v-2h1v-2c0.67-.333,1.33-0.667,2-1,0.33-1.333.67-2.667,1-4,0.67-.333,1.33-0.667,2-1,0.33-1.333.67-2.667,1-4,0.67-.333,1.33-0.667,2-1,0.33-1.333.67-2.667,1-4,0.67-.333,1.33-0.667,2-1,0.67-2,1.33-4,2-6,0.67-.333,1.33-0.667,2-1v-2h1v-2c0.67-.333,1.33-0.667,2-1,0.67-2,1.33-4,2-6,0.67-.333,1.33-0.667,2-1v-2h1c0.33-1.333.67-2.667,1-4,0.67-.333,1.33-0.667,2-1v-2h1c0.73-1.3.84-4.292,2-5h2q-1.995,5.5-4,11h-1v3h-1v2h-1v3h-1c-0.33,1.333-.67,2.667-1,4h-1v3h-1c-0.33,1.333-.67,2.667-1,4h-1v3h-1c-0.33,1.333-.67,2.667-1,4h-1v3h-1c-0.67,2-1.33,4-2,6h-1v2h-1v3h-1v2h-1c-0.33,1.333-.67,2.667-1,4h-1v2h-1v2h-1v2h-1v2h-1v2h-1c-0.67,2-1.33,4-2,6h-1c-0.33,1.333-.67,2.667-1,4h-1c-0.33,1.333-.67,2.667-1,4h-1v2h-1v2h-1v2h-1v2h-1v2h-1c-0.67,2-1.33,4-2,6-0.67.333-1.33,0.667-2,1v2h-1v2h-1v2h-1v2c-0.67.333-1.33,0.667-2,1v2h-1v2h-1v2h-1v2c-0.67.333-1.33,0.667-2,1-0.33,1.333-.67,2.667-1,4-0.67.333-1.33,0.667-2,1-0.67,2-1.33,4-2,6-0.67.333-1.33,0.667-2,1v2h-1v2c-0.67.333-1.33,0.667-2,1v2c-0.67.333-1.33,0.667-2,1-0.33,1.333-.67,2.667-1,4h-1c-0.33,1-.67,2-1,3-0.67.333-1.33,0.667-2,1-0.33,1.333-.67,2.667-1,4-0.67.333-1.33,0.667-2,1v2c-0.67.333-1.33,0.667-2,1v2c-0.67.333-1.33,0.667-2,1-0.33,1.333-.67,2.667-1,4-0.67.333-1.33,0.667-2,1v2c-0.67.333-1.33,0.667-2,1v2c-0.67.333-1.33,0.667-2,1v2h-1c-0.33,1-.67,2-1,3-0.67.333-1.33,0.667-2,1v2c-0.67.333-1.33,0.667-2,1v2c-0.67.333-1.33,0.667-2,1v2h-1c-0.33,1-.67,2-1,3-0.67.333-1.33,0.667-2,1v2l-3,2v2c-0.67.333-1.33,0.667-2,1v2c-0.67.333-1.33,0.667-2,1a19.852,19.852,0,0,0-3,7h1q2.505-3.5,5-7l3-2v-2c1.67-1.333,3.33-2.667,5-4v-2c0.67-.333,1.33-0.667,2-1v-1c0.67-.333,1.33-0.667,2-1v-2c1.33-1,2.67-2,4-3v-2c1.33-1,2.67-2,4-3v-2c0.67-.333,1.33-0.667,2-1,0.33-1,.67-2,1-3,1.33-1,2.67-2,4-3v-2l3-2v-2l3-2v-2l3-2c0.33-1,.67-2,1-3,0.67-.333,1.33-0.667,2-1v-2c0.67-.333,1.33-0.667,2-1v-2c0.67-.333,1.33-0.667,2-1,0.33-1,.67-2,1-3l3-2v-2c0.67-.333,1.33-0.667,2-1v-2l3-2v-2l3-2v-2h1c0.33-1,.67-2,1-3,0.67-.333,1.33-0.667,2-1v-2l3-2v-2c0.67-.333,1.33-0.667,2-1,0.33-1,.67-2,1-3h1v-2c0.67-.333,1.33-0.667,2-1v-2c0.67-.333,1.33-0.667,2-1v-2l3-2v-2c0.67-.333,1.33-0.667,2-1,0.33-1,.67-2,1-3h1v-2c0.67-.333,1.33-0.667,2-1v-2c0.67-.333,1.33-0.667,2-1v-2c0.67-.333,1.33-0.667,2-1v-2c0.67-.333,1.33-0.667,2-1v-2c0.67-.333,1.33-0.667,2-1v-2c0.67-.333,1.33-0.667,2-1,0.33-1.333.67-2.667,1-4,0.67-.333,1.33-0.667,2-1v-2c0.67-.333,1.33-0.667,2-1v-2c0.67-.333,1.33-0.667,2-1v-2c0.67-.333,1.33-0.667,2-1,0.33-1.333.67-2.667,1-4,0.67-.333,1.33-0.667,2-1v-2c0.67-.333,1.33-0.667,2-1v-2c0.67-.333,1.33-0.667,2-1,0.33-1.333.67-2.667,1-4h1c0.33-1,.67-2,1-3,0.67-.333,1.33-0.667,2-1,0.33-1.333.67-2.667,1-4,0.67-.333,1.33-0.667,2-1,0.33-1.333.67-2.667,1-4,0.67-.333,1.33-0.667,2-1,0.33-1.333.67-2.667,1-4,0.67-.333,1.33-0.667,2-1,0.33-1.333.67-2.667,1-4,0.67-.333,1.33-0.667,2-1v-2h1v-2c0.67-.333,1.33-0.667,2-1,0.33-1.333.67-2.667,1-4,0.67-.333,1.33-0.667,2-1,0.33-1.333.67-2.667,1-4,0.67-.333,1.33-0.667,2-1,0.67-2,1.33-4,2-6,0.67-.333,1.33-0.667,2-1,0.67-2,1.33-4,2-6h2q-1.995,5.5-4,11h-1v2h-1v3h-1c-0.67,2-1.33,4-2,6h-1v2h-1v2h-1v3h-1v2h-1v2h-1v2h-1v2h-1v2h-1v2h-1v2h-1v2h-1v2h-1v2h-1c-0.67,2-1.33,4-2,6h-1c-0.33,1.333-.67,2.667-1,4h-1c-0.33,1.333-.67,2.667-1,4h-1v2h-1v2h-1v2h-1v2h-1v2h-1v2h-1v2h-1v2h-1v2c-0.67.333-1.33,0.667-2,1v2h-1v2h-1v2h-1v2h-1c-0.33,1.333-.67,2.667-1,4-0.67.333-1.33,0.667-2,1v2h-1v2h-1v2h-1v2c-0.67.333-1.33,0.667-2,1-0.67,2-1.33,4-2,6-0.67.333-1.33,0.667-2,1-0.67,2-1.33,4-2,6-0.67.333-1.33,0.667-2,1-0.67,2-1.33,4-2,6-0.67.333-1.33,0.667-2,1-0.33,1.333-.67,2.667-1,4h-1c-0.33,1-.67,2-1,3-0.67.333-1.33,0.667-2,1-0.33,1.333-.67,2.667-1,4-0.67.333-1.33,0.667-2,1-0.33,1.333-.67,2.667-1,4-0.67.333-1.33,0.667-2,1v2c-0.67.333-1.33,0.667-2,1v2c-0.67.333-1.33,0.667-2,1-0.33,1.333-.67,2.667-1,4-0.67.333-1.33,0.667-2,1v2c-0.67.333-1.33,0.667-2,1v2h-1c-0.33,1-.67,2-1,3-0.67.333-1.33,0.667-2,1v2h-1c-0.33,1-.67,2-1,3-0.67.333-1.33,0.667-2,1v2l-3,2v2c-0.67.333-1.33,0.667-2,1v2l-3,2v2c-0.67.333-1.33,0.667-2,1v2l-3,2v2l-3,2v2l-3,2v2l-3,2v2c-0.67.333-1.33,0.667-2,1v1c-0.67.333-1.33,0.667-2,1v2c-1.33,1-2.67,2-4,3v2c-1.67,1.333-3.33,2.667-5,4v2c-1.67,1.333-3.33,2.667-5,4-7.7,10.656-16.86,18.867-26,28q-7.995,8.5-16,17h-2l-6,7h-2c-1.33,1.667-2.67,3.333-4,5h-2l-3,4h-2l-3,4-3,1c-0.33.667-.67,1.333-1,2h-2c-0.67,1-1.33,2-2,3l-3,1c-0.33.667-.67,1.333-1,2h-2c-0.33.667-.67,1.333-1,2l-3,1v1h-2c-0.33.667-.67,1.333-1,2h-2c-0.33.667-.67,1.333-1,2h-2c-0.33.667-.67,1.333-1,2h-2c-0.33.667-.67,1.333-1,2l-3,1v1h-2v1h-2c-0.33.667-.67,1.333-1,2l-4,1c-0.33.667-.67,1.333-1,2h-2v1h-2c-0.33.667-.67,1.333-1,2h-2v1h-2v1h-2v1h-2v1h-2c-0.33.667-.67,1.333-1,2l-48,22-6,1v1h-2v1l-6,1v1h-2v1l-6,1v1l-9,2c-16.54,6.582-35.8,10.862-53,17l-12,2c-4.71,1.6-11.29,3.4-16,5h-4c-3.6,1.224-7.13,2.692-12,3v2l25-1v-1h10v-1h8v-1h7v-1h6v-1h6v-1h6v-1h5v-1h5v-1h4v-1h5v-1l8-1v-1l8-1v-1h3v-1l7-1v-1h4v-1h3v-1h3v-1h3v-1h3v-1l6-1v-1h2v-1l9-2v-1l10-3,3,5c0.67,0.333,1.33.667,2,1v2h1c0.67,1,1.33,2,2,3l3,2v2c0.67,0.333,1.33.667,2,1l3,4,6,5v2q5.505,5,11,10c7.61,7.614,14.12,15.579,23,22q13.995,14.5,28,29c13.52,13.52,27.66,26.287,39,42,1.67,1.333,3.33,2.667,5,4v2c1.33,1,2.67,2,4,3v2l3,2v2l3,2v2c0.67,0.333,1.33.667,2,1v2c0.67,0.333,1.33.667,2,1,0.33,1,.67,2,1,3h1c0.33,1.333.67,2.667,1,4h1v2h1v2h1c0.67,2,1.33,4,2,6h1c0.33,2,.67,4,1,6h1v5h1c1.85,6.395-.72,18.212-2,22v4h-1v2h-1v3h-1v2h-1v2c-0.67.333-1.33,0.667-2,1v2h-1c-0.33,1-.67,2-1,3-0.67.333-1.33,0.667-2,1v2l-6,5v2l-3,2v1h-2l-6,7h-2c-0.67,1-1.33,2-2,3h-2c-0.67,1-1.33,2-2,3h-2c-0.33.667-.67,1.333-1,2h-2c-0.33.667-.67,1.333-1,2l-4,1c-0.33.667-.67,1.333-1,2h-2v1h-2v1h-2v1h-2v1h-2c-4.33,2.309-8.57,5.819-14,7v3l3,1v1l3,1c0.33,0.667.67,1.333,1,2h2c0.67,1,1.33,2,2,3h2c0.67,1,1.33,2,2,3h2c0.67,1,1.33,2,2,3h2c0.67,1,1.33,2,2,3h2c0.67,1,1.33,2,2,3h2c0.67,1,1.33,2,2,3h2c0.33,0.667.67,1.333,1,2l3,1c0.67,1,1.33,2,2,3h2c0.67,1,1.33,2,2,3h2c0.67,1,1.33,2,2,3h2c0.67,1,1.33,2,2,3h2c0.67,1,1.33,2,2,3h2c0.33,0.667.67,1.333,1,2l3,1c0.67,1,1.33,2,2,3h2c0.67,1,1.33,2,2,3h2l3,4h2l3,4h1v2c0.67,0.333,1.33.667,2,1l9,21q1.005,6,2,12-0.495,11.5-1,23c-6.2,18.33-19.97,31.43-36,40,0.84,1.13-.13.15,1,1,2.78,4.78,8.27,7.15,12,11v1c0.67,0.33,1.33.67,2,1v2c1.67,1.33,3.33,2.67,5,4v2c1,0.67,2,1.33,3,2v2c0.67,0.33,1.33.67,2,1,0.33,1.33.67,2.67,1,4,0.67,0.33,1.33.67,2,1v2h1v2h1v3h1v2h1c0.33,2,.67,4,1,6h1v5h1c1.52,5.25-.6,17.77-2,21h-1v2h-1c-0.33,1.33-.67,2.67-1,4-0.67.33-1.33,0.67-2,1v2c-1.67,1.33-3.33,2.67-5,4q-3,3.495-6,7c-10.39,7.37-24.83,11.52-37,17-0.25,5.73-2.6,6.29-3,12,1.13,0.84.15-.13,1,1,1.33-.33,2.67-0.67,4-1v3h1v1h5l3,6c1.82,0.72,6.4-4.32,7-4v1h1c-2.23,3.77-5.38,4.29-6,10a19.157,19.157,0,0,0,7,1v-1h3c-0.33,1.67-.67,3.33-1,5h1v4c-2.39.46-3.14,1.16-5,2,0.84,1.13-.13.15,1,1v1h7a15.725,15.725,0,0,0,1-6h2c0.35,3.12.73,3.1,2,5h1v5c1.33,1,2.67,2,4,3,0.33,1,.67,2,1,3,2.74-.64,2.28-1.31,5-2-0.67,2-1.33,4-2,6h1c0.33,1,.67,2,1,3,2.4-.51,3.08-1.29,5-2v1h1c-0.33,1-.67,2-1,3,0.3,0.78,2.66.15,2,3h-1c-0.33,1-.67,2-1,3h1v1h3c0.67-1.33,1.33-2.67,2-4,1.41,0.89,2.32,1.37,3,3v2q4.995,4.5,10,9v2c1,0.67,2,1.33,3,2v2c0.66,0.91,5.91,3.84,6,4,3,5.4-5.01,8.26,5,9,0.85,3.98,2.51,4.82,5,7v1c1,0.33,2,.67,3,1,0.33,3,.67,6,1,9,1.33,0.67,2.67,1.33,4,2v6h1v1c2.33,1,4.67,2,7,3-0.84,4.48-1.6,8.25,2,11h2c0.33,0.67.67,1.33,1,2h1v3c0.67,0.33,1.33.67,2,1v1h2c0.33,0.67.67,1.33,1,2h1v2h1c0.33,1.33.67,2.67,1,4h1v5h1c1.36,1.94,2.24,2.3,3,5h-5c-0.84,1.13.13,0.15-1,1v3c5.37-.17,6.43-0.8,11,0,1.13,2.13,3.13,4.63,4,7,0.33,2,.67,4,1,6,1,0.67,2,1.33,3,2v1c1,0.33,2,.67,3,1v3c-1.98,1.13-2.34,1.42-3,4q5.505,4.995,11,10v5c-0.9,1.07-.97,6.03,0,8,1,0.67,2,1.33,3,2,0.53,1.92-.63,1.37-1,2v2a9.681,9.681,0,0,1,4,1c-0.98,2.21-1.66,2.82-2,6,3-.67,6-1.33,9-2,1,1.33,2,2.67,3,4h1c1.89,2.83,3.59,10.72,4,15h-1v3c-0.61,1.28-.45-0.3-1,1-1.88.82-2.62,1.48-5,2a21.3,21.3,0,0,0,3,10c1,0.67,2,1.33,3,2,0.96,3-3.06,2.04-2,5h1c0.29,2.43,1.68,5.88,3,7,2.25,1.92,1.75-1.05,3,3h-3v1h-1v4h-1a8.723,8.723,0,0,0-2,4h1v1h3c0.33,0.67.67,1.33,1,2,3.18,2.96,4.92,3.6,5,10-6.49,2.53-9.3,1.28-9,11a9.1,9.1,0,0,1,5,6h-1c-1.35,1.59-2.17,1.74-5,2,0.33,1.33.67,2.67,1,4-0.1.39-2.79,0.39-2,3,1,0.67,2,1.33,3,2v2h-3v-1c-2.46-2.07-1.63-3.36-6-4a39.242,39.242,0,0,0-1,8h3v1h1v3h1c0.87,1.39.75,1.73,1,4h-9c0.67,6.04,4.42,8.09,6,13h-1v1c-1.18.04-2.64-1.91-5-1-0.33.67-.67,1.33-1,2-2-.33-4-0.67-6-1-1.38,2.61-1.77,1.69-2,6h-1v5c2.91,1.57,5.54,3.85,6,8-1.13.84-.15-0.13-1,1h-4v-1h-1v1h-1c1.92,5.65-1.69,5.45-1,8,0.67,0.33,1.33.67,2,1,0.33,1.33.67,2.67,1,4h-3v-1q-2.505-4.005-5-8c-1.13.84-.15-0.13-1,1-2.61,1.7-3.01,4.66-3,9,1.67,1,3.33,2,5,3-0.33,1-.67,2-1,3h1c1,1.33,2,2.67,3,4h-1c-1.13,1.72-.63,1.36-3,2-1.5-1.87-4.77-2.9-6-2h-1v4c2.47,2.14,5.57,9.82,6,14h-2c-0.33-1-.67-2-1-3-1.33-1-2.67-2-4-3-0.33-.67-0.67-1.33-1-2h-4c-3.13,5.4-10.51,4.75-16,2v-1h-2v-1c-1,.33-2,0.67-3,1,1,1.33,2,2.67,3,4,1,0.33,2,.67,3,1v2l-9-3v3c0.44,0.95,3.85,1.38,3,4h-1v1c-2.01-.57-0.87.12-2-1h-1v-3h-1c-0.33-1-.67-2-1-3h-3v1c-1.44,1.24-1.56,2.77-3,4,1.41,5.12,3.1,2.48,5,5-0.33,1-.67,2-1,3h1c1.26,1.93,1.6,1.87,2,5a10.587,10.587,0,0,1-4,1c-1.45-1.86-4.33-3.23-6-2h-1c1.27,6.52,5.11,11.12,7,17h-1v1c-4.41-2.64-4.48-7.29-11-8-2.2,3.88-5.7,4.17-12,4v-1h-2v-1h-2c-2.37-1.3-3.92-3.23-7-4v3c3.05,1.78,3.83,4.06,8,5v2c-7.06-.71-6.42-5.42-12-7v1c-2.75,1.59-4.27,4.42-5,8h-2c-0.33-1-.67-2-1-3-1.13.84-.15-0.13-1,1-1.14,1.14-.4,0-1,2h-2c-0.84-4.83-3.73-9.46-9-10a3.978,3.978,0,0,1-2,2c0.57,2.01-.12.87,1,2v2h1c0.67,1,1.33,2,2,3h2c1.67,2,3.33,4,5,6,4.03,2.24,4.01-2.33,5,4-1.13.84-.15-0.13-1,1-1.22-.67-1.39-1.59-2-2h-2c-0.33-.67-0.67-1.33-1-2h-2c-0.33-.67-0.67-1.33-1-2q-3.495-3-7-6c-0.33-.67-0.67-1.33-1-2h-3c-1.76,3.06-4.37,4.56-6,8h-2c-0.33-1-.67-2-1-3-1.28-1.46-3.48-1.7-6-2a12.6,12.6,0,0,0-1,5c1.15,0.65,2.81,1.47,3,3-0.24.5-1.63,0.16-1,2h1c0.33,1,.67,2,1,3h-1v1h-3v-1h-2v-1c-1.32-.93-1.78-0.76-4-1-0.84,1.13.13,0.15-1,1q1.005,6.495,2,13h-2c-1.33-2.33-2.67-4.67-4-7-2,.67-4,1.33-6,2v1c-6.52,2.18-10.78-5.24-16-6,1.01,3.86,2.93,3.14,4,7-4.76-1.26-4.22-4.67-9-6-1.33,1.67-2.67,3.33-4,5-1.67-.33-3.33-0.67-5-1v2h-2c-0.29-3.54-1.35-4.88-2-8a12.6,12.6,0,0,0-5-1c-0.84,1.13.13,0.15-1,1,0.57,2.01-.12.87,1,2,1.01,4.23,5.29,8.31,9,10-0.33,1-.67,2-1,3-1.13-.84-0.15.13-1-1-4.31-2.45-7.87-7.36-10-12-4.39.91-5.36,3.36-10,4-1.13-1.72-.63-1.36-3-2a7.194,7.194,0,0,1,1-4h-1v-1c-2.01.57-.87-0.12-2,1-1.14,1.14-.4,0-1,2-2.01-.57-0.87.12-2-1-3.52.91-2.85,2.43-7,3-1.42-2.51-2.05-2.87-6-3-0.84,1.13.13,0.15-1,1v3h-2c0.33-2,.67-4,1-6a9.6,9.6,0,0,1-2-2,1.449,1.449,0,0,0-2,1c-2.3.4-2.2-.9-3-2,1.72-1.13,1.36-.63,2-3-1.8-.94-1.57-1.38-4-2-1.09,2.08-1.61,1.77-2,5h1v3q-6,.495-12,1c-0.33-.67-0.67-1.33-1-2h-7a12.6,12.6,0,0,0-1,5c1.14,1.14.4,0,1,2h-2c-0.67-3-1.33-6-2-9-1-.67-2-1.33-3-2-2.16-2.45-2.07-3.91-5-6v-1h-6v-1h-2v-1h-2l-6-9c-1.36-1.27-3.21.1-5-1-0.91-.56-2.74-5.05-3-7h-3v1h-1c-0.33,1.67-.67,3.33-1,5,0.67,0.33,1.33.67,2,1v1h-1c-1.13,1.72-.63,1.36-3,2v-1c-1.16-.89-1.39-2.59-2-3-1.43-.97-3.1.4-4-1v-4h-1c-0.67-1-1.33-2-2-3-2-.33-4-0.67-6-1v-1h-2c-1-1.33-2-2.67-3-4h-2c-0.33-.67-0.67-1.33-1-2-2.12-1.29-4.21-.02-7-1v-1h-3c-0.33-.67-0.67-1.33-1-2-1,.33-2,0.67-3,1v-1h-1a12.6,12.6,0,0,0,1-5h-2c-0.41.25-3.4,6.81-5,6v-1h-1v-1h1c0.84-3.34.82-2.18,0-5a7.194,7.194,0,0,1-4-1v1a13.428,13.428,0,0,0-4,3h-2c-2.32-1.41.09-3.56-5-5v1h-1v5a6.123,6.123,0,0,1,3,3h-1v1c-1.13-.84-0.15.13-1-1-4.24-2.56-2.36-6.38-4-11-1,.33-2,0.67-3,1a10.587,10.587,0,0,0-1,4h1v4h1c1.61,2.19,3.19,2.95,4,6h-1c-1.14-1.14,0-.4-2-1-1.67-2.33-3.33-4.67-5-7v-6h-1v-1a7.194,7.194,0,0,0-4,1v-1c-1.32-1.21-.76-0.19,0-2-1.28-1.1-2.6-.88-5-1-0.33,1-.67,2-1,3-4.92-.94-8.79-4.03-13-6,0.08-3.8-.08-7.58-1-10-1-.33-2-0.67-3-1v1h-1v7h1v3c0.67,0.33,1.33.67,2,1v2h1c1.33,1.67,2.67,3.33,4,5h-3c-0.67-1-1.33-2-2-3h-1v-2c-0.67-.33-1.33-0.67-2-1-0.33-1.33-.67-2.67-1-4h-1v-6s-0.64-.06-1-2l-9-3v-1c-2.43-1.95-3.01-3.43-7-4a9.1,9.1,0,0,1-6,5c-0.62-1.29-1.64-1.43-2-2v-2h-1v-3q-4.5-2.505-9-5v1h-1v4c2.28,1.19,3.85,2.37,7,3v2c-7.91-.76-8.07-6.31-14-8a6.749,6.749,0,0,1-3,3c0.8,3.99,3.02,5.34,4,9h-1c-1-1.33-2-2.67-3-4h-1c-0.67-2-1.33-4-2-6h-1c-0.33-.67-0.67-1.33-1-2h-2c-0.33-.67-0.67-1.33-1-2h-2c-0.33-.67-0.67-1.33-1-2h-2c-0.67-1-1.33-2-2-3h-2v-1h-3c-1.09,2.08-1.61,1.77-2,5a8.264,8.264,0,0,1,3,5c-5.16-1.6-2.2-2.06-4-6h-1v-2h-1v-2c-1.67-1-3.33-2-5-3-3.79-3.44-7.62-10.54-13-12-0.84,1.13.13,0.15-1,1,0.33,0.67.67,1.33,1,2,1,0.33,2,.67,3,1v3c-1.8.94-1.57,1.38-4,2-0.67-1-1.33-2-2-3h-2v-1h-5v-1h-5v-1h-5v-1h-4v-1c-2.06-.19-1.14.39-2,1h-1v3h-2v-3c-0.67-.33-1.33-0.67-2-1-3.33-3.26-6.56-.25-11-2v-1h-2c-1.62-1.17-1.8-5.33-3-7h-1c-0.33-.67-0.67-1.33-1-2h-5v-1c-1.33-.33-2.67-0.67-4-1v-1c-2.59-2.42-.23-2.29-5-3-0.33,1-.67,2-1,3h-2c0.33-1.67.67-3.33,1-5-1-.33-2-0.67-3-1v-1h-3c-0.67,1.23-1.59,1.39-2,2v2c-0.67.33-1.33,0.67-2,1v2c-0.67.33-1.33,0.67-2,1v2c-1,.67-2,1.33-3,2v2c-0.67.33-1.33,0.67-2,1v2c-1,.67-2,1.33-3,2v2c-1,.67-2,1.33-3,2v2c-1,.67-2,1.33-3,2v2c-1.33,1-2.67,2-4,3v2c-1.67,1.33-3.33,2.67-5,4v2c-2,1.67-4,3.33-6,5v2q-5.505,4.995-11,10v2c-1.33,1-2.67,2-4,3q-3.495,4.005-7,8h-2c-1,1.33-2,2.67-3,4h-1v31c-2.08,2.43-1,16.24-1,21q-0.495,27-1,54c-2.1,7.5-.99,19.79-1,29v9c-2.27,8.08-.97,21.19-1,31v7h-1v13c0,8.81-.37,18.72-1,26-1,11.58,1.77,26.12-1,36v13c0,11.23,1.05,27.66-2,36-2.33-1.67-4.67-3.33-7-5-0.67-1-1.33-2-2-3h-2c-1.67-2-3.33-4-5-6h-2c-1.67-2-3.33-4-5-6h-2c-1.67-2-3.33-4-5-6h-2c-1.67-2-3.33-4-5-6h-2c-1.33-1.67-2.67-3.33-4-5h-2c-1.67-2-3.33-4-5-6h-2c-1.67-2-3.33-4-5-6h-2c-1.67-2-3.33-4-5-6h-2c-0.33-.67-0.67-1.33-1-2h-1c-0.67-1-1.33-2-2-3-17.62-12.74-32.37-28.26-50-41l-5-6h-2c-1.333-1.67-2.667-3.33-4-5h-2l-5-6h-2l-5-6h-2l-5-6h-2l-5-6h-2c-1.333-1.67-2.667-3.33-4-5h-2l-5-6h-2l-5-6h-2l-5-6h-2c-1.333-1.67-2.667-3.33-4-5h-2l-5-6h-2l-5-6c-19.723-14.28-36.26-31.73-56-46l-5-6h-2l-5-6h-2l-5-6h-2c-1.333-1.67-2.667-3.33-4-5h-2l-5-6h-2l-5-6h-2l-5-6h-2c-1.333-1.67-2.667-3.33-4-5h-2l-5-6h-2l-2-3c-1-.67-2-1.33-3-2v-1h-2l-5-6h-2l-5-6h-2c-1.333-1.67-2.667-3.33-4-5h-2l-5-6h-2l-5-6h-2l-5-6h-2c-1.333-1.67-2.667-3.33-4-5h-2l-5-6h-2l-5-6h-2l-5-6c-19.738-14.29-36.252-31.73-56-46l-2-3c-1-.67-2-1.33-3-2v-1h-2l-5-6c-19.745-14.29-36.259-31.73-56-46l-5-6h-2c-1.333-1.67-2.667-3.33-4-5h-2l-5-6h-2l-5-6h-2l-5-6h-2l-5-6h-2l-2-3h-1c-0.333-.67-0.667-1.33-1-2h-2l-5-6c-19.732-14.28-36.245-31.73-56-46l-5-6h-2l-5-6h-2l-5-6h-2c-1.333-1.67-2.667-3.33-4-5h-2l-5-6h-2l-5-6h-2l-5-6h-2l-5-6h-2c-1.333-1.67-2.667-3.33-4-5h-2l-5-6h-2v-1c-2-1.67-4-3.33-6-5v-31c2.54-2.94,1-14.05,1-19v-54h1v-73h1v-50q0.5-44.49,1-89c2.5-1.025,4.854-2.844,7-4h2v-1h2v-1l4-1,1-2h2v-1h2v-1h2v-1h2v-1l4-1,1-2h2v-1h2v-1h2v-1h2v-1h2v-1l4-1,1-2h2v-1h2v-1h2v-1h2v-1h2v-1h2v-1h2l1-2h2v-1h2v-1h2v-1h2v-1h2v-1l4-1,1-2h2v-1h2v-1h2v-1h2v-1h2v-1l4-1c22.885-14.393,49.133-25.579,72-40h2v-1h2v-1h2v-1h2v-1h2v-1l4-1q0.5-1,1-2h2v-1h2v-1h2v-1h2v-1h2v-1l4-1q0.5-1,1-2h2v-1h2v-1h2v-1h2v-1h2v-1h2v-1h2q0.5-1,1-2l6-2v-1h2v-1h2v-1h2v-1h2q0.5-1,1-2h2v-1h2v-1h2v-1c3.5-1.882,6.566-2.025,9-5l3,1c-2.423,5.914-4.141,13.588-6,20v8h-1v14h1v8h1v5h1v4h1v3h1v3h1v2h1v3h1q0.5,2,1,4h1q0.5,2,1,4l2,1q0.5,2,1,4l2,1v2l3,2v2l6,5v2l5,4q0.5,1,1,2h2v1l3,2,11,12h2l13,14h2l13,14h2q0.5,1,1,2l3,1,3,4h2l2,3h2c0.333,0.67.667,1.33,1,2h2c0.333,0.67.667,1.33,1,2h2c0.333,0.67.667,1.33,1,2h2c0.333,0.67.667,1.33,1,2,1.333,0.33,2.667.67,4,1,0.333,0.67.667,1.33,1,2,1.333,0.33,2.667.67,4,1v1c1.333,0.33,2.667.67,4,1v1c2,0.33,4,.67,6,1v1h2v1h4c13.506,4.6,33.087,4.93,51,5v-2c-11.29-.26-24.456-3.65-33-7-2-.33-4-0.67-6-1v-1h-2v-1h-3v-1h-2v-1h-2c-0.333-.67-0.667-1.33-1-2h-2c-0.333-.67-0.667-1.33-1-2h-2l-2-3h-2c-0.333-.67-0.667-1.33-1-2l-4-3v-2l-3-2v-2l-3-2v-2l-2-1v-2l-3-2v-2l-3-2v-2l-2-1v-2l-3-2v-2l-2-1v-2l-3-2v-2l-2-1v-2l-3-2v-2l-2-1q-0.5-1.5-1-3h-1v-2l-2-1v-2l-2-1v-2l-2-1v-2l-2-1v-2l-2-1v-2l-2-1q-0.5-2-1-4l-2-1q-1-3-2-6l-2-1q-1-3-2-6h-1v-2h-1v-2h-1q-1-3-2-6h-1q-0.5-2.5-1-5h-1v-2h-1v-3h-1v-3h-1v-3h-1v-3h-1q-0.5-4-1-8h-1v-6h-1q-0.5-8-1-16h1v-8h1v-4h1v-3h1v-3h1v-2h1v-3l2-1q0.5-2,1-4l2-1v-2l5-4,7-8h2q0.5-1,1-2l4-1v-1h2v-1l6-2v-1h3v-1h3v-1h4v-1h5v-1h8c11.433-3.213,25.281,1,36,2-1.6-6.1-13.937-8.609-20-11v-1h-3v-1h-3v-1h-4v-1h-4v-1h-5v-1h-8v-1H726v1l-13,1v1h-2v1h-3v1l-4,1v1h-2v1h-3v1h-2v1l-6,2v1h-3v1h-2v1h-2v1l-6,2v1h-3v1h-2v1h-2v1l-6,2v1h-3v1h-2v1h-2v1l-6,2v1h-3v1h-2v1h-2v1l-6,2v1h-3v1h-2v1h-2v1h-2v1l-6,2v1h-3v1h-2v1h-2v1l-6,2v1h-3v1h-2v1h-2v1l-6,2v1h-3v1h-2v1h-2v1h-2v1l-6,2v1h-3v1h-2v1l-6,2v1h-2v1h-3v1h-2v1h-2v1h-2v1l-6,2v1h-3v1h-2v1l-6,2v1h-2v1h-3v1h-2v1h-2v1h-2v1l-6,2v1h-3v1h-2v1l-6,2v1h-2v1h-3v1h-2v1h-2v1h-2v1l-6,2v1h-3v1h-2v1h-2v1l-6,2v1l-5,1v1h-2v1l-6,2v1h-3v1h-2v1h-2v1l-6,2v1h-3v1l-4,1v1l-6,2v1h-2v1h-3v1h-2v1h-2v1l-6,2v1l-9,3v1h-2v1h-3v1h-2v1h-2v1l-6,2v1h-3v1h-2v1l-9,3v1h-2v1h-2v1l-5,1v1l-6,1c-1.71-2.018-2.319-.841-4-2l-1-2-7-6v-2l-3-2v-2l-3-2v-2l-2-1v-2l-2-1v-2l-2-1v-2l-2-1-1-4h-1l-1-3-2-1v-2h-1v-2l-2-1-1-4-2-1-2-6h-1v-2h-1l-2-6h-1v-3h-1v-2h-1v-3h-1V861c2.692-1.673,3.267-4.3,5-7l2-1v-4c2.842-8.775,1.284-30.2-1-38v-7h-1v-6h-1v-5h-1v-4h-1v-4h-1v-3h-1v-3h-1v-3h-1v-4h-1v-3h-1q-1-5.5-2-11h-1q-0.5-4-1-8h-1q-0.5-4-1-8h-1v-5c-2.279-7.082-3.791-16.731-6-24q-0.5-6-1-12h-1v-7h-1v-7h-1v-7h-1v-9h-1V661h-1V647h-1V617c-1.319-4.873,0-14.4,0-22q1-18.5,2-37h1v-8h1v-8h1q1-9.5,2-19h1v-5h1v-5h1v-5h1v-5h1q1-6.5,2-13h1v-4h1q1-5.5,2-11h1v-3h1v-4h1v-3h1v-3h1v-3h1l3-13h1v-2h1q1-4.5,2-9h1v-2h1q0.5-3,1-6h1v-2h1v-3h1v-2h1v-3h1l1-4h1v-3h1l1-4h1v-3h1v-2h1v-2h1v-2h1l2-6h1v-3h1l2-6h1l1-4,2-1v-2h1v-2h1v-2h1v-2h1v-2h1l1-4,2-1,2-6,2-1v-2h1v-2h1v-2h1l1-3,2-1v-2h1v-2l2-1,1-4,2-1v-2l2-1v-2l2-1v-2l2-1v-2h1l1-3,2-1v-2h1l1-3,2-1v-2l2-1,1-3,3-2v-2l2-1v-2l3-2v-2l4-3v-2l3-2v-2l4-3v-2l5-4v-2l5-4v-2l7-6v-2l9-8v-2l14-13c9.769-9.765,18.625-19.775,30-28l6-7h2l4-5h2l4-5h2l3-4h2q0.5-1,1-2l3-1,3-4h2l2-3h2l2-3h2l2-3h2q0.5-1,1-2h2l2-3h2v-1l3-1q0.5-1,1-2h2l2-3h2q0.5-1,1-2l3-1v-1h2q0.5-1,1-2l4-1q0.5-1,1-2h2q0.5-1,1-2h2q0.5-1,1-2l4-1v-1l3-1q0.5-1,1-2l4-1q0.5-1,1-2h2v-1h2v-1h2q0.5-1,1-2l6-2c26.734-16.817,57.717-29.767,88-43h3V92h3V91h2V90h3V89l6-1c21.316-9.3,46.712-14.491,70-22h5V65h4V64h5V63h5V62h4V61h5V60h6c11.324-3.43,26.3-3.623,38-7h9V52h9V51h11V50h14V49h20c9.981-1.638,33.262-2.758,43,0h21v1h13v1h11v1h10v1h8v1h8c7.57,2.221,17.56,2.768,25,5h6v1h5v1h5v1h5v1h4v1h5v1l13,2v1l8,1v1h3v1l11,2v1h4v1h3v1h4v1l6,1v1h3v1h3v1h3v1h3v1h3v1h3v1h3v1h3v1h3v1h3v1h2v1l6,1v1h2v1l6,1v1l5,1v1h2v1h3v1l4,1v1h3v1h2v1h3v1l4,1v1h2v1h3v1h2v1h2v1l6,2v1h3v1h2v1l4,1v1h2v1h2v1h2v1h2v1h2v1h2v1h2v1h2v1h2v1h2c0.33,0.667.67,1.333,1,2l4,1v1h2v1h2v1h2v1h2c0.33,0.667.67,1.333,1,2l6,2c0.33,0.667.67,1.333,1,2l6,2c0.33,0.667.67,1.333,1,2l4,1c0.33,0.667.67,1.333,1,2l4,1c0.33,0.667.67,1.333,1,2l4,1c0.33,0.667.67,1.333,1,2h2c0.33,0.667.67,1.333,1,2l4,1c0.33,0.667.67,1.333,1,2h2c0.33,0.667.67,1.333,1,2h2c0.33,0.667.67,1.333,1,2h2c0.33,0.667.67,1.333,1,2h2c0.33,0.667.67,1.333,1,2h2v1l3,1c0.33,0.667.67,1.333,1,2h2v1l3,1c0.33,0.667.67,1.333,1,2h2c0.67,1,1.33,2,2,3h2c1.33,1.667,2.67,3.333,4,5h2c1.67,2,3.33,4,5,6h2l6,7h2l6,7h2l6,7h2q3.495,4,7,8h2q3.495,4,7,8h2q4.005,4.5,8,9h2q4.005,4.5,8,9h2q4.995,5.5,10,11h2q4.995,5.5,10,11h2q5.505,6,11,12h2v1c1.33,1,2.67,2,4,3q4.005,4.5,8,9h2c0.33,0.667.67,1.333,1,2,1.67,1.333,3.33,2.667,5,4l9,10,3,1c1.67,2,3.33,4,5,6h6c2.36-2.014,4.77-.834,8-2v-1h3v-1h4v-1h4c10.64-3.646,23.45-6.247,34-10l12-2v-1l7-1v-1h4v-1h4v-1h4v-1h4v-1h3v-1h4v-1l12-2v-1l19-4c18.85-6.765,41.24-10.045,60-17l12-2v-1h4v-1l7-1v-1h4v-1h4v-1h4v-1h3v-1l8-1c8.37-2.845,18.6-5.019,27-8h4v-1h3v-1h4v-1h4l42-12h4v-1h3v-1h4v-1h4v-1c1.62-.518,4.4.37,5-1v2Zm25-7,3,1a66.708,66.708,0,0,0,3,16v8h1q0.495,11,1,22h-1v17h-1v8h-1v6c-1.59,5.225-3.3,12-5,17v4h-1v3h-1v3h-1v3h-1v3h-1c-0.33,2-.67,4-1,6h-1v2h-1v3h-1c-0.33,1.333-.67,2.667-1,4h-1v2h-1v3h-1c-0.67,2-1.33,4-2,6h-1v2h-1v2h-1c-0.67,2-1.33,4-2,6-0.67.333-1.33,0.667-2,1-0.67,2-1.33,4-2,6-0.67.333-1.33,0.667-2,1-0.33,1.333-.67,2.667-1,4-0.67.333-1.33,0.667-2,1-0.33,1.333-.67,2.667-1,4-0.67.333-1.33,0.667-2,1v2c-0.67.333-1.33,0.667-2,1v2c-0.67.333-1.33,0.667-2,1v2c-0.67.333-1.33,0.667-2,1v2l-3,2v2c-0.67.333-1.33,0.667-2,1v2l-3,2v2c-1.33,1-2.67,2-4,3-0.33,1-.67,2-1,3-0.67.333-1.33,0.667-2,1v2c-1.67,1.333-3.33,2.667-5,4v2c-1.67,1.333-3.33,2.667-5,4v2q-4.005,3.5-8,7v2q-5.505,5-11,10c-7.3,7.293-13.48,14.842-22,21q-4.005,4.5-8,9h-2c-1.67,2-3.33,4-5,6h-2v1l-3,2c-0.67,1-1.33,2-2,3h-2l-3,4h-2l-3,4h-2l-3,4h-2l-3,4h-2c-0.67,1-1.33,2-2,3h-2c-0.67,1-1.33,2-2,3h-2c-0.67,1-1.33,2-2,3l-3,1c-0.33.667-.67,1.333-1,2h-2c-0.33.667-.67,1.333-1,2h-2c-0.67,1-1.33,2-2,3h-2c-0.33.667-.67,1.333-1,2h-2c-0.67,1-1.33,2-2,3h-2c-0.33.667-.67,1.333-1,2l-3,1v1h-2c-0.33.667-.67,1.333-1,2h-2c-0.33.667-.67,1.333-1,2h-2c-0.67,1-1.33,2-2,3l-4,1v1l-3,1c-0.33.667-.67,1.333-1,2h-2c-0.33.667-.67,1.333-1,2h-2c-0.33.667-.67,1.333-1,2h-2c-0.33.667-.67,1.333-1,2h-2c-0.33.667-.67,1.333-1,2h-2v1h-2c-0.33.667-.67,1.333-1,2l-4,1c-0.33.667-.67,1.333-1,2h-2c-0.33.667-.67,1.333-1,2l-4,1c-0.33.667-.67,1.333-1,2l-4,1c-4.1,2.6-6.82,6.266-13,7v-1h1c1.76-2.717,4.37-3.11,7-5,1.33-1.667,2.67-3.333,4-5h2c1.33-1.667,2.67-3.333,4-5h2l6-7h2l9-10c8.15-5.891,14.03-13.025,21-20q4.995-4.5,10-9v-2q4.995-4.5,10-9v-2q3.495-3,7-6v-2l6-5v-2c0.67-.333,1.33-0.667,2-1,0.67-1,1.33-2,2-3h1v-2c1.67-1.333,3.33-2.667,5-4v-2c1.33-1,2.67-2,4-3v-2c0.67-.333,1.33-0.667,2-1,0.33-1,.67-2,1-3,1.33-1,2.67-2,4-3v-2l3-2v-2l3-2v-2l3-2c0.33-1,.67-2,1-3,0.67-.333,1.33-0.667,2-1v-2c0.67-.333,1.33-0.667,2-1v-2l3-2v-2c0.67-.333,1.33-0.667,2-1v-2l3-2v-2c0.67-.333,1.33-0.667,2-1v-2h1c0.33-1,.67-2,1-3,0.67-.333,1.33-0.667,2-1v-2l3-2v-2c0.67-.333,1.33-0.667,2-1,0.33-1,.67-2,1-3h1v-2c0.67-.333,1.33-0.667,2-1,0.33-1.333.67-2.667,1-4,0.67-.333,1.33-0.667,2-1v-2c0.67-.333,1.33-0.667,2-1v-2c0.67-.333,1.33-0.667,2-1v-2c0.67-.333,1.33-0.667,2-1,0.33-1.333.67-2.667,1-4h1c0.33-1,.67-2,1-3,0.67-.333,1.33-0.667,2-1,0.33-1.333.67-2.667,1-4h1c0.33-1,.67-2,1-3,0.67-.333,1.33-0.667,2-1,0.33-1.333.67-2.667,1-4,0.67-.333,1.33-0.667,2-1,0.33-1.333.67-2.667,1-4,0.67-.333,1.33-0.667,2-1,0.67-2,1.33-4,2-6,0.67-.333,1.33-0.667,2-1v-2h1v-2c0.67-.333,1.33-0.667,2-1,0.67-2,1.33-4,2-6,0.67-.333,1.33-0.667,2-1,0.33-1.333.67-2.667,1-4h1v-2c0.67-.333,1.33-0.667,2-1v-2h1v-2h1v-2h1v-2h1v-2c0.67-.333,1.33-0.667,2-1v-2h1v-2h1v-2h1v-2h1c0.33-1.333.67-2.667,1-4,0.67-.333,1.33-0.667,2-1,0.33-1.333.67-2.667,1-4h1v-2h1v-2h1v-2h1v-2h1v-2h1v-2h1v-2h1v-2h1v-2h1v-2c0.67-.333,1.33-0.667,2-1,0.33-1.333.67-2.667,1-4h1c0.67-2,1.33-4,2-6h1v-3h1c0.67-2,1.33-4,2-6h1v-2h1v-2h1v-2h1v-2h1Q1836.5,239,1846,218ZM1607,1234v8h1v3h1v3h1v3h1v4h1v3h1v3h1v3h1c1.67,3.19,1.04,4.91,5,6v1h4c1.05-2.4,1.12-3.21,4-4q4.5,11.505,9,23v4h1c0.67,3.33,1.33,6.67,2,10h1c1.14,1.14,0,.4,2,1,2.97-14.18-2.65-25.21-7-35v-3h-1c-0.33-1.33-.67-2.67-1-4h-1v-3h-1v-2h-1v-2a29.564,29.564,0,0,0-6-7c-0.33-.67-0.67-1.33-1-2h-4c-0.33,1-.67,2-1,3h-3c-0.45-2.92-5.44-15.1-7-16h-2Zm66,22c-0.99,3.07-.93.96,0,4,1.13-.84.15,0.13,1-1h1C1675.71,1256.86,1673.88,1256.65,1673,1256Zm0,70q2.505,7.5,5,15c1,0.67,2,1.33,3,2v1c1.48,0.93,3.12-.42,4,1,1.51,2.44-.66,6.01,2,8h2c1.86,1.03,6.92,2.5,8,4v2h1v2c0.67,0.33,1.33.67,2,1v2h1v2h1v2h1v2c2,1.67,4,3.33,6,5q2.505,7.995,5,16h1v2h1v3h1v2h1v3h1v3h1v3h1v3h1v4h1v3h1v4h1v4h1c0.67,3.33,1.33,6.67,2,10h2c0.44-21.53-5.57-38.2-12-53q-1.995-7.005-4-14c-1.02-1.33-2.49-.03-4-1-0.33-.67-0.67-1.33-1-2h-1v-3h-1v-2h-1l-3-9c-1-.67-2-1.33-3-2v-1c-1.82-1.04-6.95-.37-8-2v-5h-1c-0.33-1.33-.67-2.67-1-4-1.55-2.17-5.7-1.37-7-3v-2h-1v-3c-2.35-5.99-2.83-13.57-11-14-1.53,2.79-4.55,6.12-8,7v-1h-1v-6c-2.04-6.95-2.07-15.85-2-25a10.587,10.587,0,0,0-4-1c-0.33,1-.67,2-1,3-1.57,1.52-3.16,9.01-2,13h1v7h1v7l3,9a13.428,13.428,0,0,1,4,3c2-.67,4-1.33,6-2,0.67-1,1.33-2,2-3h3Zm86,71c-1.85,3.49-2.07,5.13-2,11,1.24,0.96,1.06,2.22,2,3,1,0.33,2,.67,3,1v3h1v1c2.01-.57.87,0.12,2-1h1v-4c-4.5-3.48.92-2.68-1-8h-1v-2c-0.67-.33-1.33-0.67-2-1-0.33-1-.67-2-1-3h-2Zm-10,10a12.6,12.6,0,0,0-1,5c1.13,0.84.15-.13,1,1,0.67-.33,1.33-0.67,2-1a10.587,10.587,0,0,0,1-4C1751,1407.67,1750,1407.33,1749,1407Zm2,41c1.14,1.14,0,.4,2,1C1751.86,1447.86,1753,1448.6,1751,1448Zm-48,12q-4.005,13.005-8,26h-1q-3.495,12.495-7,25h-1v2h-1v3h-1v2h-1v3h-1v2h-1v2h-1v2h-1v2h-1v2h-1v2h-1v2h-1c-0.33,1.33-.67,2.67-1,4-0.67.33-1.33,0.67-2,1-0.33,1.33-.67,2.67-1,4-0.67.33-1.33,0.67-2,1v2c-1,.67-2,1.33-3,2-2.23,3.18-1.6,5.85-6,7v-1h1v-4c0.67-.33,1.33-0.67,2-1,0.33-1,.67-2,1-3h1c0.33-1.33.67-2.67,1-4,5.86-9.26,10.65-15.99,8-31-3.99-1.83-3.33-1.82-8-1q-3,4.995-6,10v3h-1v3h-1v4h-1v4h-1q-1.5,8.505-3,17c-1.67,1.33-3.33,2.67-5,4v2c-1.67,1.33-3.33,2.67-5,4-0.33.67-.67,1.33-1,2h-2c-1.33,1.67-2.67,3.33-4,5h-2c-0.67,1-1.33,2-2,3h-2c-0.33.67-.67,1.33-1,2-1,.33-2,0.67-3,1v1c-1.33.33-2.67,0.67-4,1-0.33.67-.67,1.33-1,2-2,.67-4,1.33-6,2-0.33.67-.67,1.33-1,2-1.33.33-2.67,0.67-4,1v1c-2,.67-4,1.33-6,2v1h-3v1c-1.33.33-2.67,0.67-4,1v1h-2v1h-3v1h-2v1h-2c-0.33.67-.67,1.33-1,2-1.33.33-2.67,0.67-4,1v2c10.62,0.19,16.96-3.82,24-7h3v-1h2v-1h2v-1h2v-1h2v-1c1.33-.33,2.67-0.67,4-1,0.33-.67.67-1.33,1-2,1.33-.33,2.67-0.67,4-1,0.33-.67.67-1.33,1-2,1.33-.33,2.67-0.67,4-1,0.67-1,1.33-2,2-3h2c0.33-.67.67-1.33,1-2h2c1-1.33,2-2.67,3-4,1-.33,2-0.67,3-1,1.67-2,3.33-4,5-6h1v1c3.38,3.65-.17,7.14,7,8,1.67-2,3.33-4,5-6h1v-2c1-.67,2-1.33,3-2,0.33-1.33.67-2.67,1-4,0.67-.33,1.33-0.67,2-1v-2c0.67-.33,1.33-0.67,2-1v-2c0.67-.33,1.33-0.67,2-1v-2c0.67-.33,1.33-0.67,2-1,0.33-1.33.67-2.67,1-4,0.67-.33,1.33-0.67,2-1,0.67-2,1.33-4,2-6,0.67-.33,1.33-0.67,2-1v-2h1v-2h1v-3h1c0.33-1.33.67-2.67,1-4h1v-3h1v-2h1v-3h1v-2h1c0.67-3,1.33-6,2-9,5.25-13.23,10.7-29.13,11-47h-2Zm64,3v2c2.61,1.38,1.69,1.77,6,2,0.33-1,.67-2,1-3A19.157,19.157,0,0,0,1767,1463Zm-4,4a10.587,10.587,0,0,0-1,4c1.13,0.84.15-.13,1,1,2.01-.57.87,0.12,2-1h1v-3C1765,1467.67,1764,1467.33,1763,1467Zm-545,37a9.681,9.681,0,0,0-4,1c0.57,2.01-.12.87,1,2v1c2.01-.57.87,0.12,2-1h1v-3Zm-15,2c0.33,3.69.82,4.21,4,5v-1c1.14-1.14.4,0,1-2C1205.92,1506.91,1206.23,1506.39,1203,1506Zm19,9a10.587,10.587,0,0,0-1,4,13.428,13.428,0,0,1,4,3c2.01-.57.87,0.12,2-1h1v-3a6.749,6.749,0,0,1-3-3h-3Zm25,2v2c1.13-.84.15,0.13,1-1h1C1247.86,1516.86,1249,1517.6,1247,1517Zm8,1c-0.33,1-.67,2-1,3h1v1c2.01-.57.87,0.12,2-1,1.14-1.14.4,0,1-2C1257,1518.67,1256,1518.33,1255,1518Zm496,0v3h2v-3h-2Zm-479,11a10.587,10.587,0,0,0-1,4c2.84,1.68,2.72,3.45,7,4,0.33-1,.67-2,1-3-2.16-1.25-2.93-2.69-4-5h-3Zm17,9v2c2.88,1.65,4.28,4.04,8,5v-1c1.13-.84.15,0.13,1-1-1-.33-2-0.67-3-1-1-1.33-2-2.67-3-4h-3Zm37,2c-0.26,1.98-1.61.82,0,2v1h1C1328.66,1541.13,1327.42,1541.19,1326,1540Zm12,12v1h-1c-0.52,1.15,2.84,2.68,3,3C1341.7,1554.02,1339.83,1553.11,1338,1552Zm22,2a10.587,10.587,0,0,0-1,4c1.13,0.84.15-.13,1,1,2.01-.57.87,0.12,2-1h1v-3C1362,1554.67,1361,1554.33,1360,1554Zm-2,12v4c1,0.33,2,.67,3,1v1h5c0.33-1,.67-2,1-3-1.13-.84-0.15.13-1-1C1360.9,1567.74,1362.51,1566.61,1358,1566Zm360,1v2a34.815,34.815,0,0,0,7,1C1724.06,1566.41,1722.39,1566.84,1718,1567Zm-345,1c-0.6,1.29-.64,1.47-2,2,0.62,2.71,4.69,2.16,8,2,0.33-1,.67-2,1-3A19.157,19.157,0,0,0,1373,1568Zm341,8a9.681,9.681,0,0,0-1-4c-1.13.84-.15-0.13-1,1-0.42.58-1.63,0.15-1,2h1C1713.14,1576.14,1712,1575.4,1714,1576Zm4-4v4a10.587,10.587,0,0,0,4,1c0.33-1,.67-2,1-3C1721.12,1573.18,1720.38,1572.52,1718,1572Zm-327,3c-0.33.67-.67,1.33-1,2h1c0.56,0.53.2,1.66,2,1v-1c1.13-.84.15,0.13,1-1h-1C1391.86,1574.86,1393,1575.6,1391,1575Zm-22,2c1.14,1.14.4,0,1,2h-1v-2Zm41,16c1,0.33,2,.67,3,1v1C1410.61,1594.39,1411.14,1594.68,1410,1593Zm28,4v-3c-3.95-.34-2.91-0.96-6,0,0.84,1.13-.13.15,1,1C1434.35,1596.59,1435.17,1596.74,1438,1597Zm13,1a9.681,9.681,0,0,0-4,1c0.33,1,.67,2,1,3,0.67-.33,1.33-0.67,2-1C1450.33,1600,1450.67,1599,1451,1598Zm222,0v3h1c0.5,0.55,7.1,3.39,8,3v-1c1.14-1.14.4,0,1-2h-1v-1h-6c-0.33-.67-0.67-1.33-1-2h-2Zm-29,9h2c0.67-1,1.33-2,2-3-1.13-.84-0.15.13-1-1-0.67.33-1.33,0.67-2,1C1644.67,1605,1644.33,1606,1644,1607Zm25-2c-0.33,1-.67,2-1,3h1v1C1672.83,1607.85,1671.78,1606.65,1669,1605Zm7,0c-0.33,1-.67,2-1,3h1c1.13,1.72.63,1.36,3,2v-1c1.14-1.14.4,0,1-2C1678.2,1606.06,1678.43,1605.62,1676,1605Zm-201,7v-2c-1-.67-2-1.33-3-2v-1c-1.4-.23.27,0.37-1,1h-1c0.84,1.13-.13.15,1,1C1472.13,1610.98,1472.42,1611.34,1475,1612Zm178-5c-1.54,2.37-4.26,2.9-7,4,0.57,2.01-.12.87,1,2v1h3c1.44-2.47,3.14-2.79,4-6,1.13-.84.15,0.13,1-1h-2Zm-166,17c-0.33-2-.67-4-1-6a9.681,9.681,0,0,0-4,1c0.57,2.01-.12.87,1,2,0.33,1,.67,2,1,3h3Zm10-5c-0.33,1-.67,2-1,3h1v1c2.01-.57.87,0.12,2-1,1.14-1.14.4,0,1-2C1499,1619.67,1498,1619.33,1497,1619Zm-5,2a9.681,9.681,0,0,0,1,4c1.13-.84.15,0.13,1-1h1c-0.33-1-.67-2-1-3h-2Zm12,1a10.587,10.587,0,0,0-1,4c1.8,0.94,1.57,1.38,4,2v-1h1v-3C1506.2,1623.06,1506.43,1622.62,1504,1622Zm64,6v2h2v-2h-2Zm26,0v2c3.08,0.63,3.46,1.6,7,2,0.33-.67.67-1.33,1-2h-1v-1h-5C1595.91,1628.97,1596.19,1628.38,1594,1628Zm-26,5v3h4c1.2-1.86,2.8-2.14,4-4-1.13-.84-0.15.13-1-1C1571.9,1632.64,1573.2,1632.9,1568,1633Zm20,2h3c-0.33-1-.67-2-1-3-1.13.84-.15-0.13-1,1C1587.86,1634.14,1588.6,1633,1588,1635Zm7-2c-0.33,1-.67,2-1,3h1v1c2.01-.57.87,0.12,2-1,1.14-1.14.4,0,1-2C1597,1633.67,1596,1633.33,1595,1633Z"/>
</svg>
