<svg xmlns="http://www.w3.org/2000/svg" width="161.75" height="47.75" viewBox="0 0 1294 382">
  <defs>
    <style>
      .cls-1 {
        fill: #c93;
        fill-rule: evenodd;
      }
    </style>
  </defs>
  <path class="cls-1" d="M362,0H510V380c-7.754,2.823-25.076,1-35,1H141c-3.147-2.653-10.348.34-15-1v-1h-6v-1h-6v-1h-4v-1h-4v-1h-3v-1h-3v-1H97v-1H94c-16.159-6.444-29.853-15.508-43-25l-7-8-10-9v-2l-4-3-1-3-2-1v-2l-2-1-1-3H23v-2l-2-1-1-4-2-1-2-6H15l-2-6H12v-3H11v-2H10v-3H9v-2H8l-1-6H6L4,267H3v-5c-2.082-6.962-2-15.612-2-25,0-29.055,5.861-50.25,17-68l2-6,2-1v-2l2-1v-2l2-1v-2l2-1v-2l4-3c17.278-24.04,41.478-39.2,72-50l8-1c20.535-6.865,53.482-4,80-4H361c2.683-7.343,1-20.828,1-30V0ZM577,1H723c2.9,7.953,1,25.842,1,36V380c-3.85,1.4-10.619,1-16,1H577c-2.863-7.855-1-22.276-1-32V28C576,19.643,574.6,7.59,577,1ZM785,1h349c19.46,0,36.73.186,51,5h4V7h3V8h3V9h3v1l6,1v1l4,1v1l9,3c0.33,0.667.67,1.333,1,2l6,2c0.33,0.667.67,1.333,1,2h2c0.33,0.667.67,1.333,1,2h2c0.33,0.667.67,1.333,1,2h2c0.33,0.667.67,1.333,1,2h2c0.67,1,1.33,2,2,3l3,1,6,7h2c1.33,1.666,2.67,3.334,4,5,0.67,0.333,1.33.667,2,1v2q3.495,3,7,6v2l3,2c0.33,1,.67,2,1,3,0.67,0.333,1.33.667,2,1v2c0.67,0.333,1.33.667,2,1,0.33,1,.67,2,1,3h1v2c0.67,0.333,1.33.667,2,1,0.67,2,1.33,4,2,6h1v2c0.67,0.333,1.33.667,2,1,0.33,1.666.67,3.334,1,5h1c0.33,1.333.67,2.667,1,4h1c0.33,1.666.67,3.334,1,5h1c0.67,3,1.33,6,2,9,11.25,28.858,7.17,69.584-4,95v3h-1c-0.67,2-1.33,4-2,6h-1v2h-1v2h-1v2h-1v2h-1v2c-0.67.333-1.33,0.667-2,1-0.33,1.333-.67,2.667-1,4-0.67.333-1.33,0.667-2,1v2c-0.67.333-1.33,0.667-2,1v2l-3,2v2c-1.33,1-2.67,2-4,3-16.88,23.468-42.17,38.447-72,49l-8,1c-20.32,6.62-53.77,4-80,4H933c-2.591,7.089-1,20.1-1,29v62c-3.85,1.4-10.619,1-16,1H785c-2.863-7.855-1-22.276-1-32V28C784,19.643,782.6,7.59,785,1ZM933,113c-1.86,5.076-1,14.279-1,21v42c4.587,1.67,12.814,1,19,1h167v-1c1.43-.834,5.36-0.162,7-1v-1l6-2,6-7,3-2c0.33-1.333.67-2.667,1-4h1v-2h1c0.85-1.969,2.93-13.824,2-17h-1v-5h-1v-2h-1v-3c-0.67-.333-1.33-0.667-2-1v-2l-3-2v-2h-1c-0.67-1-1.33-2-2-3h-2c-0.67-1-1.33-2-2-3h-2v-1l-4-1v-1c-4.93-1.948-12.66-1-19-1H933ZM174,205v1h-4v1l-4,1v1h-2l-2,3h-2v1l-3,2v2l-3,2q-0.5,2-1,4h-1q-0.5,2-1,4h-1v6c-4.473,15.611,10.479,30.847,21,35,4.931,1.946,12.661,1,19,1H361c1.86-5.076,1-14.279,1-21V206c-1.135-.844-0.145.127-1-1H174Z"/>
</svg>
