<svg xmlns="http://www.w3.org/2000/svg" width="56.5" height="54.8" viewBox="0 0 565 548">
  <defs>
    <style>
      .cls-1 {
        fill: #dda833;
        fill-rule: evenodd;
      }
    </style>
  </defs>
  <path class="cls-1" d="M485,73c13.276-.479,28.981,1.111,33,10,6.165,6.56,4.509,23.686,1,32-9.053,21.451-24.47,38.791-41,53-21.242,18.259-45.021,33.527-68,50-36.73,26.331-72.279,55.587-109,82-6.253,4.5-12.837,7.485-19,12-6.992,5.123-13.636,12.31-21,17-7.221,4.6-19.275,8.165-20,19,3.835,1.5,21.116,2.514,18,8-2.743,7.817-9.679,8.8-16,13-13.861,9.221-27.6,20.036-42,29-5.513,3.433-15.438,5.832-18,12-0.752,1.073-.6.946-1,3,4.613,3.218,7.519,10.807,8,18-6.864,6.529-14.162,16.886-26,18-8.532-8.506-38.764-25.877-41-37a15.816,15.816,0,0,0,7-6c12.264,6.337,25.741,28.094,40,29,3.124-4.2,5.822-3.192,6-11-3.406-2.394-3.563-5.63-6-9-4.524-6.255-20.382-13.994-22-21,7.177-2.361,11.5-8.954,17-13,11-8.1,22.315-16.134,33-24,31.6-23.269,63.476-46.142,95-69,9.9-7.181,19.252-15.115,29-22,6.029-4.259,13.618-4.9,14-15a2.834,2.834,0,0,1-1-1c-3.638-.531-9.738-2.174-13,0-6.567,2.149-10.907,8.326-16,12-12.536,9.044-24.7,18.293-37,27-35.9,25.414-71.351,50.341-107,76-15.124,10.886-45.04,41.85-67,42-4.469-3.757-7.044-6.881-11-11l1-17c-13.639-7.853-24.524-20.736-37-30-6.38-4.737-13.523-6.147-14-17,9.569-8.936,20.312-20.566,34-25,5.383,4.445,34.5,10.457,43,13,4.553,1.363,9.686-.542,12,3-5.76,4.681.431,10.836-10,12-4.669-3.527-40.846-13.761-49-14-4.278,5.249-13.98,6.792-15,15,12.983,6.207,31.047,29.066,45,30,9.111-14.255,24.562-21.055,38-31,4.683-3.466,7.817-9,12-13a34.041,34.041,0,0,0-1-8c-1.39-.467-4.848-1.177-6-2h1c7.506-10.875,32.373-25.642,44-34,26.6-19.122,51.315-41.818,78-61,9.587-6.892,18.691-14.238,28-21,4.656-3.382,11.907-5.067,13-12a2.834,2.834,0,0,1-1-1c-6.959-.826-11.629-2.857-20-3-5.257,6.732-13.966,9.96-21,15-12.5,8.954-24.234,18.826-37,28-5.7,4.094-10.2,12.327-18,14-7.4-7.181-17.968-10.388-27-16-17.855-11.094-36.964-22.8-55-34-7.3-4.533-29.3-12.684-32-20-1.344-1.681-1.637-3.143-2-6,8.9-10.705,20.181-16.156,32-24,3.235-2.147,7.06-6.826,11-8,5.029-1.5,10.561,2,14,3,11.938,3.467,23.967,5.472,35,9,26.775,8.563,54.455,10.679,82,19,13.066,3.947,27.732,5.627,42,10,5.78,1.772,8.779,5.385,16,6,16.176-20.775,41.493-35.541,63-51,19.08-13.715,36.835-34.021,60-43,7.7-2.984,16.434-5.09,24-7C472.864,73.52,480.524,75.836,485,73Zm-2,14c-9.794,6.244-26.945,7.447-31,19a6.732,6.732,0,0,0,0,7c1.423,5.213,4.248,8.815,11,9,7.515-8.989,39.7-22.706,41-34h-2C498.506,85.72,488.352,86.869,483,87ZM106,165c10.7,1.026,20.146,10.193,28,15,17.738,10.858,35.28,19.03,53,30,6.577,4.072,9.471,9.445,20,10,4.881-6.923,13.07-10.035,20-15,6.109-4.377,11.78-10.716,18-15,5.366-3.695,14.025-5.977,15-14h-2c-8.849-5.91-27.625-6.515-39-10-16.195-4.961-33.924-8.408-51-14-11.651-3.815-23.2-8.675-38-9-4.582,5.96-15.906,14.019-24,16v6ZM356,321h4c0.4-8.66,3.149-18.257,5-26,1.518-6.35-1.346-12.758,0-17,3.073-9.683,8.464-19.783,18-23,0.961,1.766,1.257,1.68,2,4,2.451,4.479-2.206,14.184-3,19-3.777,22.9-6.3,46.342-17,62-3.091-2.057-2.926-3.46-8-4-1.4,4.106-1.074,11.344-1,17-3.711,5.886-2.026,15.5-4,23-5.458,20.748-6.581,45.384-12,66q-0.5,7-1,14c-4.437,11.626-36.126,25.557-46,35-3.741-1.583-6.845-2.776-9-6-6.366-8.606-1.187-35.007-4-48-6.142-28.371-3.787-67-6-98,12.423-7.821,23.842-18.882,36-27,7.589-5.067,17.853-8.614,23-16h1v1c3.275,3.158.888,6.094,7,7v-1h1V290c5.5-3.659,9.217-9.7,17-11v2C355.454,286.513,355.934,312.027,356,321ZM295,473c7.147-1.211,11.057-6.558,16-10,4.164-2.9,11.332-4.773,14-9,3.38-5.355,1.378-14.323,3-21,3.991-16.435,4.584-34.477,9-52,3.274-12.993,7.948-31.7,5-44V307a15.7,15.7,0,0,0-5-1c-3.837,10.291-39.107,30.951-49,40C290.583,388.732,291,434.733,295,473ZM230,350c-4.026,4.95-10.693,7.271-16,11-9.108,6.4-17.989,14.51-27,21-5.735,4.13-14.985,6.227-16,15a21.509,21.509,0,0,0,7,1c5.019-4.522,12.136-6.3,18-10,9.585-6.049,18.862-14.412,28-21,5.492-3.959,14.285-5.283,15-14a8.894,8.894,0,0,1-3-3h-6Z"/>
</svg>
