<svg xmlns="http://www.w3.org/2000/svg" width="56.5" height="54.8" viewBox="0 0 565 548">
  <defs>
    <style>
      .cls-1 {
        fill: #dda833;
        fill-rule: evenodd;
      }
    </style>
  </defs>
  <path class="cls-1" d="M257,55c105.55-1.4,173.478,44.3,213,108,6.131,9.882,8.706,20.179,14,31,22.35,45.688,27.274,119.68,5,170-29.093,65.724-78.892,111.3-150,135-14.331,4.777-30.764,4.7-46,8-9.12,1.973-25.446.662-33-1l-25-2c-16.963-4.53-33.595-9.8-48-16C117.234,457.983,80.561,416.372,54,343c-8.927-24.66-15.182-67.84-7-100,3.641-14.31,6.825-28.617,12-42C81.764,142.133,128.572,96.3,186,72c14.591-6.173,30.862-10.053,47-14C240.383,56.194,251.1,58.7,257,55ZM198,352V332c-10.906-3.648-30.082-1.084-43-1-3.386-10.11-1.084-27.928-1-40-1.844-2.672-.664-7.113,0-10,9.072-4.714,30.3-2.121,43-2a2.834,2.834,0,0,1,1-1c-0.437-9.113-.361-16.591,6-19,2.347-1.544,4.281-.586,7,0v2c3.057,4.922,1,29,1,37v97c-3.086,1.947-3.43,2.887-9,3-6.863-7.2-5.28-17.193-5-31-2.418-1.3-2.833-1.8-7-2-2.743,1.325-15.824.093-22,0-4.786,9.245-2.11,38.385-2,52l3,1c2.4,1.25,11.579,0,17,0h43V195c-4.02-.73-6.619-1.412-8-5-3.457-3.905-14.2-41.16-14-46,1.595-1.433,2.856-4.218,5-5,3.107-1.133,6.83.355,9-1,0.877-1.295.894-2.467,1-5-1.9-2.02-.907-2.691-2-6-0.767-2.324-4.277-7.149-3-11,2.746-8.279,29.861-5.366,41-5v-1h1a81.856,81.856,0,0,1,1-16l3-1c2.673-1.907,6.993-.705,9,1,3.305,4.12-.212,14.57,5,17,6.676,4.139,24.7-1.3,30,1,2.873,1.12,1.842.174,3,3,3.247,5.286-4.176,16.431-5,23a2.834,2.834,0,0,1,1,1c5.468-.218,11.106-0.329,14,2,2.273,2.31,2.87,4.349,3,9-5.037,5.784-6.891,20.881-10,29-1.266,3.307-5,13.1-8,15-1.932,1.226-4.939.078-6,2V397c-3.6,2.812-3.755,5.383-10,6-7.588-11.9-4-41.437-4-60V195h-2c-2.951-2-7.591-.519-11,0,0.043,73.657-.956,147.377-1,222h1v1c24.159,2.312,57.472,0,85,0,24.956,0,55.373,2.22,77,0,1.6-4.659,5.443-6.528,8-10,7.241-9.833,15.173-20.279,21-31,12.062-22.192,15.493-46.5,22-75V284c0.007-32.043-6.46-57.572-16-80-20.916-49.172-53.161-86.209-99-110-15.4-7.992-30.7-10.809-49-16-21-5.956-62.938-9.243-88-3C145.583,97.026,89.412,150.175,66,237c-15.121,56.079,4.993,115.792,26,149,5.885,9.3,18.294,33.305,31,34v-2c3.452-5.542-.009-28.239,0-37,0.031-30.049.175-58.308,0-88-5.123-1.742-14.248-1.078-21-1v2c-1.635,2.809-.143,14.07,0,20-2.67,1.441-4.221,1.994-9,2a35.4,35.4,0,0,1-3-3c-3.6-4.663.288-12.243-2-19-2.21-6.525-6.228-3.738-4-15l3-1c0.944-.6,30.472.058,36,0a25.086,25.086,0,0,0,1-8c-0.8-1.021-.355-0.274-1-2-3.009-.723-6.653-1.72-8-4-2.172-3.677-1.4-7.992-3-12-3.7-9.243-10.543-21.492-10-31,1.834-1.285,1.712-1.968,4-3,2.289-1.45,4.455-.519,6-3,2.9-5.153-4.015-16.342-3-23h2c5.234-3.36,21.519-1.134,29-1,1.749-3.261,2.108-7.256,2-13h2c1.919-1.772,3.136-1.9,7-2,1.732,1.724,2.783,1.5,4,4,1.273,2.1.686,7.924,2,10,5.586,3.577,23.09,1.134,31,1,1.283,2.072,2.077,2.3,3,5-3.219,4.117-6.381,13.089-7,19,4.336,2.546,5.72,5.586,9,9,0.141,12.424-5.536,21.943-9,31-1.482,3.875-1.574,10.36-5,12H139c-1.021.8-.274,0.355-2,1V417c3.856,1.322,10.614,1.073,16,1v-2c2.468-4.379-.009-37.357,0-47,0-5.863-.888-14.078,3-16h7C165.524,351.677,191.488,351.939,198,352Zm37-227c-0.037,5.689,1.015,8.7,2,13,11.906,3.968,38.453,1.079,53,1,1.552-1.5,1.838-.777,3-3,1.97-2.437,2.738-5.857,3-10C282.364,121.466,251.527,124.92,235,125Zm-11,27c-0.027,7.568,5.417,24.666,9,29,3.49,2.193,12.716,1,18,1h45c1.021-.8.274-0.355,2-1,1.99-9.983,7.256-17.285,8-28-6.234-2.065-17.076-1-25-1H224Zm22,42c-1.3,2.418-1.8,2.833-2,7,2.933,4.749.068,13.378,0,19q0.5,20.5,1,41c0,54.309.076,107.235,0,157h2c1.961,1.084,6.659.166,11,0,2.69-7.994,1.082-22.18,1-32-2.646-4.314-.016-11.956,0-18,0.038-14.755.235-27.545,0-42-0.682-42-.164-83.324,0-130C255.739,194.251,251.744,193.892,246,194Zm119,16V378l24,1c4.713,12.885,1.84,13.895-15,13-3.747,2.422-40.663.312-47-1l-1-3c-8.136-13.322,16.918-7.636,23-11,3.564-5.752,1-36.592,1-46V210c-4.616-2.185-5.265-3.862-5-11,7.117-4.359,22.375-3.15,34-3,1.481,2.136,27.959,28.577,29,29h45c1.021,0.8.274,0.355,2,1l5,6v51c-2.515,1.96-2.522,3.722-6,5-5.478,3.888-18.062,1.048-24,2V395c-4.26,2.691-10.11,6.068-14,0-3.447-5.376-1-21.391-1-29V290h-2c-2.163-1.174-10.88-.131-16,0-3.554,5.344-10.047,10.437-15,4-0.7-.948-2.337-3.2-2-5,0.424-2.266,4.276-4.927,5-7,3.865-11.064-5.029-30.49,3-37,2.138-1.583,6.663-1.453,9-3,0.961-1.418.976-3.273,1-6C386.466,227.558,385.3,209.858,365,210Zm-241-6a62.538,62.538,0,0,0,1,13h45a18.324,18.324,0,0,0,1-6c1.049-1.549,1.031-4.085,1-7H124Zm193,23,5,1c4.465,7.433,3,23.049,3,35v80c-0.8,1.021-.355.274-1,2-4.249,1.087-9.019,3.458-12-1-3.485-5.213-1-21.513-1-29,0-27.259-3.575-61.477,1-84A24.935,24.935,0,0,0,317,227Zm-198,3c-0.029,7.095,2.557,18.266,6,23,1.021,0.8.274,0.355,2,1,5.365,3.431,40.912.809,45,0,2.975-6.773,5.7-15.015,6-24C159.57,229.818,137.43,229.818,119,230Zm286,12c-1.372,2.542-1.917,3.5-2,8,2.95,3.632,1.99,4.959,9,5,2.172-3.315,5.483-9.288,0-12C410.451,241.951,407.915,241.969,405,242Zm40,1a42.493,42.493,0,0,0-14,0c-0.522,4.652-.353,6.049,0,11h2c2.787,1.926,8.018.687,11,0a18.324,18.324,0,0,0,1-6C445.589,247.038,445.107,246.087,445,243Zm-39,22c-1.718,2.447-2.077,4.2-2,9a28.9,28.9,0,0,0,9,1c2.117-3.261,4.894-6.511,0-9C411.451,264.951,408.915,264.969,406,265Zm25,0a39.469,39.469,0,0,0-1,8c3.426,1.833,8.028,2.115,14,2,1.372-2.542,1.917-3.5,2-8C442.4,265.08,437.2,264.88,431,265ZM167,319h30c2.257-6.681,1.08-18.581,1-27h-2c-3.806-2.184-20.573-.139-28,0C165.743,298.681,166.92,310.581,167,319ZM135,433v4c5.521,3.556,9.731,9.28,15,13,16.257,11.477,36.762,21.186,56,29,9.426,3.829,18.263,3.188,29,6,47.395,12.411,103.457-.319,135-19,11.5-6.814,36.632-17.616,42-29,0.8-1.18.773-1.681,1-4H135Z"/>
</svg>
