<svg xmlns="http://www.w3.org/2000/svg" width="56.5" height="56.5" viewBox="0 0 565 565">
  <defs>
    <style>
      .cls-1 {
        fill: #dda833;
        fill-rule: evenodd;
      }
    </style>
  </defs>
  <path class="cls-1" d="M351,86c1.768,7.355,9.539,14.238,12,22,1.6,5.051-1.426,12.233,1,16,1.3,0.877,2.467.894,5,1,16.783-26.344,65.386-14.989,77,8,2.651,5.247,9.006,26.474,5,38-2.062,5.933-7.653,11.048-9,18h-3v4c-4.26,2.591-6.945,4.917-7,12,17.476,3.624,33.3,13.727,39,29,2.4,6.439-.016,11.067,2,18,2.108,7.251,1.922,21.3-1,30-4.367,13-8.694,22.062-14,33-1.669,3.44-.253,6.192-2,9-0.933,1.5-4.206,2.643-5,4-0.714,1.221.848,0.314,1,1,0,0-3.7,9.535-4,10l-3,1,1,3c-0.754,1.5-3.288,2.736-4,4-0.461.819,1.267,2,0,4-4.814,7.609-14.553,14.168-19,21-0.416.638,1.243,2.132,0,4l-7,6v27c3.753,6.1,1.58,14.315,4,22,1.838,5.837,4.443,16.188,6,22v7c2.28,5.755,6.006,14.946,7,22-2.464,1.533-2.276,2.291-6,3-6.49-4.1-25.082-.094-31-1a32.431,32.431,0,0,0-8-9c3.253-13.712-5.072-54.8-15-62-0.917-.474-2.294.089-4-1-5.837-6.511-16.722-36.865-13-52,1.16-4.717,2.9-8.019,3-15l5-1v-7a18.324,18.324,0,0,0-6-1v2c-0.777,1.194-1.2,4.815-2,6-3.6,3-9.124,8.01-14,9v3h-5c-1.919-3.332-3.4-2.965-4-8,9.714-4.865,21.065-14.158,25-25V305c1.677-2.757,5.241-.061,7-4,3.95-5.7,2.825-13.5,5-21,5.231-18.033,9.051-68.534,1-84-5.664-10.881-30.374-18.8-33-30,5.723-6.1,1.194-8.5,4-17,1-3.016,4.62-3.94,6-6v-5c3.782-7.836,10.107-16.947,11-27-11.067-6.686-15.531-22.3-26-28-14.163-7.715-43.921-13.387-63-7-8.227,2.754-18.991,11.752-26,13v3h-3c-1.2,8.453-9.4,13.631-11,22-0.773,4.048,3.354,22.028,5,25l7,6q1,6.5,2,13c1.771,4.1,6.352,8.863,8,13,4.386,11.008,3.125,32.192,9,41,1.549,1.049,4.085,1.031,7,1,1.073-.752.946-0.6,3-1v36c-1.631,3.564-4.906,2.39-6,8h-3c-0.421-6.08,1.049-14.17-1-22-5.38-20.558-11.955-31.573-12-57a21.509,21.509,0,0,0-7-1c-3.277,3.042-5.124.739-10,3l-3,4h-4c-5.81,3-14.419,9.724-18,15-4.625,6.814-8.076,63.362-4,76,1.266,3.924,4.578,11.848,6,16,3.187,9.3,1.722,22.629,14,23,1.242-3.531,3.353-4.565,5-8h2v3c-2.529,3.152-7.67,12.522-4,18,0.206,0.646,7,12,7,12,4.917-2.154,4.591,4.168,8,6,5.174,2.781,12.888-2.49,13,10-2.464,1.533-2.276,2.291-6,3-1.073-.752-0.946-0.6-3-1v-3h-5c-0.848-1.548-3.6-6.21-5-7-2.063-1.165-2.62,2.026-5,0-2.686-2.287-2.808-7.114-6-9-1.418-.961-3.273-0.976-6-1,0.159,11.712.264,20.131,3,28,3.391,9.754-6.405,33.852-9,40l-3,1c-2.7-3.474-4.01-3.1-4-10,3.148-2.931,1.452-7.171,3-12,1.257-3.92,5.168-12.054,3-19-1.646-5.276-6.136-13.757-4-23,1.173-5.075,7.144-13.99,4-22-1.264-3.22-5.717-7.461-7-11-5.064-13.967-7.8-28.729-12-43V224c1.145-3.744,3-6.25,3-13a21.509,21.509,0,0,0-7-1c-7.37,4.924-21.645-1.57-28-3a27.748,27.748,0,0,1-13,10h-6c-4.313,2.032-3.1,6.194-10,7v3c-7.374,2.552-8.6,9.272-12,16-9.425,18.627-6.127,26.608,0,47,1.729,5.755.677,10.833,3,16l3,2c1.462,2.967,2.794,12.591,3,13l4,3q-0.5,2-1,4h2c2.357,2.846,1.232,2.8,1,7h3v2c0.745,1.216.137,0.992,0,4,2.076,0.372,1.924.242,3,1,2.636,2.267,3.723,3.054,4,8h3c0.624,4.4,3.716,4.438,3,7v2h4v4c5.852,2.677,28.706,26.176,29,34-4.953-.781-6.046-1.873-11-1-1.07,3.35.3,9.629-1,14-3.869,13.038-4.4,28.571-8,43-1.184,4.749-5.445,14.533-4,18,1.455,2.542-.217,1.128,3,2,2.587,1.39,14.167.126,20,0-0.064-11.458,6.762-30.37,11-39,0.8,1.021.355,0.274,1,2,3.138,5.387-.117,22.4,4,29,5.037,4.881,13.425,8.922,21,11h6c21.021,6.969,56.264,15.415,86,9h12c9.457-2.742,21.182-2.825,31-6,3.939-1.274,10.8-6.183,14-5,1.912,1.934,3.036,6.054,2,8-7.2,6.958-23.667,5.53-35,9-22.55,6.9-66.793,7.392-90,0l-14-1c-7.355-2.486-17.707-5.3-25-9-1.551-.787-3.891-3.393-6-4-8.007-2.306-11.143,4.469-16,6-9.69,3.054-24.62,1-36,1-1.708-2.725-2.536-2.5-3-7,5.086-4.525,3.529-12.533,6-20,4.834-14.605,6.764-35.018,12-50,1.655-4.737,1.756-18.111,0-21-2.285-6.521-9.854-8.633-13-14v-4c-1.717-2.35-7.361-5.016-9-8v-4c-1.036-1.73-4.976-3.1-6-5-1.716-3.185-1.278-7.908-3-11-0.948-1.7-4.94-3.173-6-5-3.363-5.8-3.866-10.86-7-17-1.2-2.36-4.98-6.323-6-9-3.134-8.22-2.57-16.612-6-25-4.271-10.445-8.085-23.335-3-36,3.771-9.394,12.7-26.646,21-31l3,1c2.123-1.405,3.687-5.754,6-7,6.4-3.45,16.139-.8,18-9-7.6-7.793-15.313-16.373-20-27-8.285-18.785,7.366-51.457,20-58,6.5-3.368,15.362-6.069,22-8,5.335-1.552,11.377,1.169,14,2,7.86,2.491,12.671,2.4,19,6,6.5,3.7,5.507,10.365,16,11a18.324,18.324,0,0,0,1-6c-8.169-12.394,9.231-28.935,11-36h3V83h3V80c5.906-1.836,9.767-7.447,15-10,20.86-10.177,51.05-9.573,73,0C336.882,73.438,344.94,84.33,351,86ZM172,121c-2.789,2.456-6.456,1.959-10,4-8.4,4.839-16.415,14.523-20,24v21c4.7,15.009,19.97,32.319,40,28h9C229.255,181.643,225.9,119.8,172,121Zm223,0c-2.716,2.307-5.282,1.128-9,3-8.4,4.23-15.927,14.4-19,24-8.352,26.1,16.1,59.477,44,50C452.424,183.928,450.35,119.739,395,121ZM263,148h2v1C263.246,148.369,264.029,148.807,263,148Zm46,0h2v2h-2v-2Zm-2,2c-0.372,2.076-.242,1.924-1,3-5.38,5.737-19.868,4.228-31,4-1.9-2.553-5.419-3.266-8-5v-2a14.124,14.124,0,0,1,4-1C279.052,155.813,296.067,150.261,307,150Zm-78,6c-1.8,2.568-2.115,5-2,10-1.344,1.681-1.637,3.143-2,6a21.509,21.509,0,0,0,7,1c2.662-2.406,5.473-2.215,7-6C235.7,162.78,234.929,157.72,229,156Zm123,1c-3.407,3.665-6.634,5.044-7,12,3.832,1.83,5.794,2.95,12,3a14.124,14.124,0,0,0,1-4c-1.337-1.992-1.1-6.507-1-10A15.7,15.7,0,0,0,352,157Zm-39,19a34.041,34.041,0,0,1,8,1c2.676,8.561,6.982,9.984,7,23-4.468,4.21-.83,10.987-3,18-2.749,8.884-6,21.462-6,33a6.1,6.1,0,0,0-2,2,2.834,2.834,0,0,1-1-1c-3.051-1.94-4.365-3.489-5-8,5.269-8.044,7-40.517,7-55a18.324,18.324,0,0,0-6-1c-8.114,5.432-24.856,2.2-33,8-2.892,4.187-3.3,11.64-8,14v-2c-4.216-6.3,7.958-24.47,15-25C293.963,178.22,306.707,182.052,313,176Zm108,29c-7.067,7.5-22.358,5.732-35,5-1.121,2.091-1.434,1.832-2,5,6.5,9.8.42,48.579-2,58-1.347,5.244-.132,8.521-2,14-3.683,10.8-8.821,18.658-11,32-1.989,12.18,12.583,19.3,8,33-1.616,4.832-7.846,7.878-10,12-3.113,5.958,3.2,28.071,6,32,3.1,1.849,6.782.687,10,2,0.57,16.362,8.43,29.465,13,44,3.2,10.171,3.435,18.873,7,29,3.657,1.648,7.96,2.08,14,2a10.925,10.925,0,0,1,2-3c-2.432-11.516-5.883-25.56-9-36V421c-0.562-2.26-2.444-6.889-3-9V398c-2.864-5.249-8.654-1.671-8-13,24.182-18.552,46.831-57.107,58-89,14.856-42.421,7.231-67.555-28-82a38.784,38.784,0,0,0-1-9h-7Zm-1,50h3c2.591-4.638,4.068-10.346,11-11v2c0.251,0.968.784,0.379,0,1-1.89,5.784-7.6,12.386-10,18-0.966,2.259.046,4.49-1,6-1.18.8-1.681,0.773-4,1a18.324,18.324,0,0,1-1-6C420.2,263.605,420.141,259.873,420,255Zm-265,7c2.873,1.12,1.842.174,3,3,1.764,2.546,2.592,13.879,2,15-1.021.8-.274,0.355-2,1v-2C155.91,275.945,153.931,265.212,155,262Zm168,32c0.257,3.2.994,3.191,0,5-1.723,4.494-7.452,8.194-11,11q0.5,11.5,1,23a21.509,21.509,0,0,1-7,1c-2.913-4.121-9.5-7.553-16-8-2.851,2.8-13.118,10.257-17,8-2.333-4.652,4.006-16.5,0-23-3.382-8.991-12.765-5.345-13-18,5.4-.62,17.214-1.016,23-3,0.062-7.912,3.54-18.134,11-19,0.955,4.043,6.449,18.391,10,20h13C318.816,292.889,319.642,293.424,323,294Zm-51,4c1.555,9.549,8.5,10.95,9,25,5.8-.617,8.416-6.085,15-4,3.233,1.024,2.929,3.362,8,4v-1h1c-0.224-11.4,3.44-13.177,6-20a4.559,4.559,0,0,0-1-4c-2.092-1.346-6.152.312-9-1-5.75-2.648-2.395-9.914-11-11-1.645,3.972-3.072,8.21-7,10C280.47,297.778,276.238,297.99,272,298Z"/>
</svg>
