<svg xmlns="http://www.w3.org/2000/svg" width="56.5" height="56.5" viewBox="0 0 565 565">
  <defs>
    <style>
      .cls-1 {
        fill: #dda833;
        fill-rule: evenodd;
      }
    </style>
  </defs>
  <path class="cls-1" d="M277,64c56.364-.725,79.38,22.728,109,48,7.775,6.634,25.259,23.615,21,41-2.257,9.212-8.26,20.1-15,25-10.214,7.428-20.722,4.742-21,23-1.854,2.811-1.128,10.487-1,15,11.159,6.96,15.515,25.455,8,40-3.392,6.566-11.655,11.137-15,16-2.056,2.989-1.453,6.378-3,10a123.811,123.811,0,0,1-11,20c-3.733,5.4-9.165,5.016-10,14,5.839,6.625,2.514,18.863,10,24,16.359,11.225,40.713,13.214,60,21,51.156,20.65,70.375,51.491,70,124-1.957,1.487-3.764,5.083-6,6H411c-5.367,3.315-16.012.012-23,0H326l-108,1c-16.514,0-37.314,2.156-52-1-8.664-1.862-23.9-.52-31,1-11.764,2.518-29.639.2-40-1-5.36-8.232-4.168-24.991-4-39,3.653-5.692,4.924-25.43,8-33,7.584-18.664,20.8-34.934,37-45,19.485-12.106,46.076-18.035,68-27,7.407-3.029,20.448-4.333,24-11,3.814-4.325,5.7-18.079,6-25-6.737-6.315-15.052-15.258-19-24l-4-14c-1.364-1.98-3.976-1.574-6-3-7.134-5.026-18.092-24.545-13-41,1.933-6.246,9.188-9.925,11-15q-0.5-12.5-1-25c-8.794-4.17-19.53-10.447-25-18-4.493-6.2-11.635-23.946-6-36,10.291-22.014,41.436-46.85,63-58,8.017-4.145,18.581-7.476,27-10C266.33,65.4,272.73,66.676,277,64Zm-6,17c-7.614,4.859-18.974,4.027-27,8-16.683,8.259-52.5,34.242-59,51-2.142,5.523-.462,12.4,0,18,7.975,6.607,9.109,16.83,24,17,4.913-6.115,15.917-8.056,24-11,25.072-9.131,69.779-13.295,99-4,12.053,3.834,28.513,13.652,41,14,3.083-3.1,7.427-4.323,11-7l7-9c0.168-6.324,2.092-11.021,0-17-2.927-8.364-11.224-14.225-17-20-19.11-19.107-40.979-32.508-72-40H271Zm23,42c6.773-.879,6.287-5,11-7,4.906-2.084,15.044.309,21,1v4l-12,9c-0.851.82-1.151,3.3-2,4-2.439,2-9.388.354-12,2-6.509,8.357-8.722,6.466-23,6-2.131-4.278-2.368-6.781-9-7-1.567,1.243-.51.642-2,0-4.012-1.3-18.165-12.59-19-17h1v-1c5.671-.7,16.46-2.56,22,0,4.036,1.865,3.278,4.446,10,5q-0.5-4-1-8l7-5h1v1c4.069,1.072,5.068,3.043,8,5A39.469,39.469,0,0,0,294,123Zm63,56c-11.116-1.624-21.173-7.175-32-10-22.684-5.919-58.015-3.964-78,2-9.866,2.944-27.8,3.932-30,14,27.536,16.3,76.549,19.85,112,9C338.606,191.06,356.151,190.5,357,179Zm-7,19c-4.887,5.977-16.438,5.635-25,8-19.2,5.3-47.516,8.7-70,3-11.783-2.988-23.916-9.124-36-10-1.158,3.366-1.068,9.15-1,14,5.217,8.76-1.525,27.027,1,38,6.628,28.811,18.984,51.741,42,64,35.579,18.95,70.741-10.409,84-33,3.326-5.667,2.87-11.749,6-18,1.972-3.937,6.98-3.185,10-6,5.621-5.24,6.919-18.317,5-28-3.62-.81-7.047-2.461-9-5-4.1-5.462-.7-19.924-3-27h-4ZM204,231c-1.065,7.758-.757,15.015,2,21h1v-6c1.09-1.694.726-11.566-1-14C204.979,231.2,205.726,231.645,204,231Zm111,29a30.439,30.439,0,0,1-7-1c-9.487-14.006,1.232-21.867,19-22,1.734,1.833,3.53,2.808,5,5,2.666,3.319,2.851,13.135,1,18-3.935,10.343-15.83,23.957-30,24-1.476-2.5-2.988-3.89-4-7C304.236,273.792,314.588,267.976,315,260Zm-69,63q-1,9-2,18c15.844,5.29,25.228,22.639,45,24,9.053-8.7,40.18-16.607,41-31-2.22-2.529-2.016-7.086-4-10-1.073-.752-0.946-0.6-3-1-7.016,9.113-32.794,16.2-50,11C263.766,331.211,255.847,324.114,246,323Zm-15,27c-3.136,4.118-6.552,2.694-7,10,7.814,6.693,12.316,31.3,24,32,3.639-8.654,16.691-9.311,18-20-7.194-4.113-25.572-15.647-30-22h-5Zm106,0c-6.706,8.282-29.27,15.04-30,27,6.94,4.648,11.826,15.5,22,16,3.706-14.568,18.251-22.319,20-38C345.058,352.633,343.2,350.486,337,350ZM107,476H263v-5c-4.911-3.024-9.88-6.976-10-15,4.2-4.9,11.279-32.805,12-41-4.822-3.982-4.712-11.451-13-12-1.89,2.138-11.08,9.97-13,8-8.174-6.77-17.067-27.327-23-37-3.7-6.031-2.158-10.729-12-11-4.028,3.113-9.653,3-15,5-11.567,4.327-25.479,8.127-37,14C120.1,398.26,106.569,426.872,107,476Zm205,0H462c2.257-6.681,1.08-18.581,1-27-2.8-4.453-1.332-11.435-3-17l-9-22c-13.675-22.424-36.071-28.45-62-39-8.455-3.44-16.228-7.881-28-8-7.4,18.238-19.226,33.924-29,50-1.754-.631-0.971-0.193-2-1-7.324-2.157-6.478-7.577-16-8-2.679,5.522-5.745,7.758-6,16,4.245,5.446,7.625,23.828,10,31,0.973,2.939,1.312,8.679,1,9C317,466.876,312.393,466.843,312,476ZM284,374c-4.435,7.462-16.266,10.562-17,21,5.191,3.365,12.211,12.645,13,20-4.06,5.2-10.162,37.406-12,46-1.139,5.326,2.156,13.623,5,15h27c2.239-4.7,4.636-7.238,5-14-3.553-4.235-2.182-10.746-4-17-3.094-10.643-7.988-21.254-9-34,4.407-4.2,11.52-12.473,12-20l-16-17h-4Z"/>
</svg>
