<svg xmlns="http://www.w3.org/2000/svg" width="56.5" height="56.5" viewBox="0 0 565 565">
  <defs>
    <style>
      .cls-1 {
        fill: #dda833;
        fill-rule: evenodd;
      }
    </style>
  </defs>
  <path class="cls-1" d="M474,92c-6.133-.7-8.513-2.953-17-3-2.461,3.423-10.358,9.1-15,10-1.073-.752-0.946-0.6-3-1V90c6.147-3.258,16.57-14.655,27-12,4.089,1.041,8.142,3.792,12,5,3.28,4.913,12.5,16.7,10,26-0.856,3.179-2.4,10.757-5,15-0.286.467-2.678,1.137-3,2-1.83,4.906,1.993,19.818,3,24,3.582,14.869-2.072,59.023-6,68l-3,2v5a153.228,153.228,0,0,1-8,17c-3.187,5.159-6.574,5.94-8,13h-3c-0.561,7.22-4.618,6.669-6,13h-4c0.227,1.072,1.893,2.008,1,4-0.409.912-8.847,6.52-10,8v4h-2v-1h-1v5c-1.023,2.008-5.831,3.128-7,5-3.239,5.185-2.94,10.912-7,15v-1c-3.5-1.635-5.2-2.455-6-7,2.238-3.049,2.06-6.407,4-10,4.228-7.832,13.942-12.659,16-22h3v-4c7.4-4.968,11.651-13.856,16-22,0.99-1.853,4.962-3.411,6-5v-5c4.565-9.478,9.161-22.55,13-33V187c3.373-15.565-.037-33.912,0-51-8.566.07-10.454,3.9-16,6-6.9,2.61-23.686,3.659-32,3-2.046,3.241-2.988,4.032-3,10,4.035,4.575.7,12.174,3,19,2.832,8.424-.47,35.834-4,45-2.783,7.227-4.3,16.744-8,24-2.246,4.4-7.715,8.971-10,13-5.448,9.605-9.154,18.061-15,27l-3,1v3c-1.751,2.629-5.675,6.5-8,9h-2v4c-1.426,2.449-7.41,5.755-9,8-1.722,2.431-2.056,6.445-4,9l-3,1v4c-3.284,5.99-10.5,12.7-13,19-2.982,7.509-1.477,15.422-6,21v-2c-1.952-2.062-2.964-5.021-5-7,6.1-11.69,10.314-27.831,18-41,4.588-7.861,16.889-19.032,19-28h3v-4c17.626-12.3,28.228-47.959,38-71V189c3.114-13.632-1.041-37.7-5-48V129c-1.4-5.048-3.7-12.86-5-18-1.04-4.106.733-10.711,0-12-3.084-1.914-8.953.631-13-1l-2-3h-7c-1.2-.324-4.351-2.757-5-3l-14-1c-26.685-7.968-86.919-11.776-118-5H228c-7.887,2.375-35.87,7.062-40,12-3.37,4.662-3.166,11.834-6,17-4.161,7.586-12.531,14.918-16,23q-0.5,6.5-1,13c-6.587,23.844-4.649,62.177,4,83,4.857,11.693,24.087,32.564,25,44h3c2.562,7.5,13.876,20.114,19,26,1.962,2.253,1.369,5.326,3,8l6,5c11.818,17.845,20.928,38.739,22,67,2.469,1.5,3.773,4.648,6,6,4.925,2.99,6.619.155,7,8-8.774,4.741-8.632,15.028-16,17v5c-6.741,4.206-13.191,9.539-13,21h4a34.041,34.041,0,0,1-1,8h-2c-3.267,1.686-6.832-1.257-12,0-16.307,3.967-14.506,10.248-14,30a9.257,9.257,0,0,1,4,3c11.215-3.717,42.589-2.132,55-1,7.861,0.717,18.775.331,25-1h20c18.429,0,38.422.144,54,2a12.205,12.205,0,0,1,4-4c-2.085-6.159-1.079-17.139-1-25h-1v-1c-4.38-.44-5.04-2.169-8-3H303c-10.447,0-25.4,1.859-34-1l1-3c2.829-.993,3.105-3.181,5-4h69v1h1v-1c1.869-2.837.4-6.248,0-10h-4c-2.3-3.544-6.906-5.631-9-9-4.585-7.376-8.1-15.157-12-23h-3v-4c2.039-1.065,15.13-9.544,16-11,2.719-4.55,2.38-8.679,6-12,4.133-3.791,10.63-3.32,16-6,8.845-4.415,17.867-12.84,29-15a18.324,18.324,0,0,1,1,6c-0.8,1.021-.355.274-1,2-11.419,7.084-23.706,12.2-36,19l-14,15c-0.17,14.8,5.794,19.892,13,27l4,5h70c7.8-6.866,15.111-7.71,15-23-6.774-5.19-7.075-14.649-19-15-5.059-3.251-20.733-1.133-28-1l-1-2c2.6-1.417,7.088-4.117,10-5,4.3-1.3,9.9.971,13-1,0.8-1.021.355-.274,1-2-2.431-4.228,1.392-11.059-1-17-0.785-1.949-4.171-5.676-5-8-2.056-5.766-1.007-14.75-1-22h5c1.664,2.2,2.836,2.026,4,5,3.808,4.457.39,12.9,2,20,1.695,7.478,4.019,13.753,4,24,4.4,2.537,12.434,4.376,16,8,11.8,11.99,9.054,37.913-5,45-14.853,7.49-48.515,2.823-67,2-1.3,2.418-1.8,2.833-2,7,19.572,11.7,16.543,17.012,16,47-5.184,3.566-14.676,3.194-24,3-6.911,4.283-35.427,0-45,0l-110,1a18.068,18.068,0,0,0-3-4c-0.45-15.339-2.927-38.727,8-43,3.137-2.457,7.173-.492,7-10a14.124,14.124,0,0,0-4-1c-3.5,2.188-12.709,1-18,1l-44-1c-3.238-4.392-10.044-5.5-13-10-8.233-12.535-2.079-30.242,6-38,3.987-3.828,10.708-3.326,13-9,3.943-5.844.458-12.782,3-21,15.571-50.344-27.434-75.951-44-105-16.13-28.285-24.271-72.32-15-114,3.311-14.888-11.827-20.362-7-37,1.766-6.087,7.46-10.155,9-16,4.614-1.206,8.782-5.631,13-7,11.076-3.6,23.242,6.142,27,11,1.159,1.5,1.307,4.216,3,5h12c0.968-.251.379-0.784,1,0,0.8,1.021.355,0.274,1,2-1.288,1.856-1.626,5.26-3,7-1.418.961-3.273,0.976-6,1-2.526-1.641-4.756-.471-8,0-3.235-6.749-8.829-13.036-19-13-3.161-2.092-7.755-.333-12,0-2.325,3.42-5.009,4.031-6,9-4.923,6.31.06,23.125,5,26,2.5,0.483,8.764,7.064,13,9,5.187,2.371,37.433,2.422,38,2,4.6-4.992,6.52-12.7,10-19,1.624-2.94,5.574-4.231,7-8,1.9-5.035-2.66-14.835,2-18,1.674-1.078,4.551.038,7-1l2-3c5.093-2.114,13.416-1.175,19-3,30.028-9.814,80.461-19.051,119-10,10.451,2.454,19.021.168,29,3,14.84,4.211,30.394,12.868,48,13,1.244-4.93,3.2-9.4,8-11,1.69-1.142,4.9-1.066,8-1,3.748,5.609,9.449,9.215,10,18h-2c-8.784,5.29-10.687-1.034-10,15,4.42,7.345,2.2,19.134,7,26,1.073,0.752.946,0.6,3,1,6.12-3.579,15.743-.011,26-3,10.318-3.007,35.808-17.176,28-36C476.039,95.682,474.58,96.373,474,92ZM169,92c0.8,1.021.355,0.274,1,2h-1V92Zm-64,46c-2.379,6.957.814,17.693-1,26-13.043,59.747,35.358,105.715,56,138,3.576,5.594,11.486,37.916,7,48l-4,3c-2.674,5.639-1.989,13.545-2,21h1v1c4.988,0.493,7.634.078,14,0,2.057,3.091,3.46,2.926,4,8-2.281,1.225-2.251,1.638-6,2-3.792,2.021-11.747-2.037-18,0-8.128,2.647-12.454,10.641-18,16q0.5,6,1,12c3.893,3.177,5.9,9,11,11h53c3.121-1.93,21.124-2.145,25-3,2.654-6.7,20.538-18.979,15-28-9.5-22-48.916-13.053-56-33l3-1c5.88-5.266,33.941,9.153,45,10a18.324,18.324,0,0,0,1-6c-3.227-4.961-1.625-11.149-5-18-5.349-10.858-12.347-21.78-19-32l-3-1c-5.15-6.668-7.49-14.714-13-21-15.28-17.431-30.034-36.217-40-59-4.01-9.167-3.519-17.4-6-28-2.055-8.779-3.743-24.374-2-36q1.5-9,3-18c-2.806-1.513-4.964-2.043-10-2C137.829,145.823,109.973,138.3,105,138Zm212,92c-4.873,1.2-4.685,3.95-8,6-4.33,2.678-12.351,4.667-17,6-12.548,3.6-22.935-5.375-29-9-24.754-14.794-24.172-39.92-9-63,2.059-3.132,5.627-2.968,9-5,2.757-1.661,4.5-5.731,8-7,27.549-9.991,51.195,8.685,58,29,3.684,11,.775,23.5-4,32C322.8,222.919,318.427,224.88,317,230Zm-36-64c-2.069,1.664-4.155,1.91-8,2-4.134,5.4-11.3,8-15,14-9.841,15.976.146,38.51,12,45,20.489,11.217,39.05-2.924,46-16,1.9-3.579,5.941-16.985,2-23C313.776,174.038,299.731,165.723,281,166Zm0,23h11a101.322,101.322,0,0,0,8,9,17.682,17.682,0,0,1-2,4c-3.163,3.964-6.614,7.177-13,8-4.068-4.165-9.209-6.477-10-14A20.9,20.9,0,0,0,281,189Z"/>
</svg>
