<svg xmlns="http://www.w3.org/2000/svg" width="56.5" height="56.5" viewBox="0 0 565 565">
  <defs>
    <style>
      .cls-1 {
        fill: #dda833;
        fill-rule: evenodd;
      }
    </style>
  </defs>
  <path class="cls-1" d="M160,177c-0.273-41.631,32.114-38,73-38H366c5.5,0,15.337-1.3,19,1,5.578,1.733,6.469,5.464,10,9v62c2.091,1.121,1.832,1.434,5,2,3.7-2.287,13.476-1,19-1h52c12.776,3.57,16.221,16.245,22,27,8.5,15.809,17.363,32.369,27,48,5.581,9.052,12.94,15.386,13,30v75c0,11.019,1.531,25.29-3,32-5.942,8.8-16.245,7.662-29,10-0.069,34.486-43.673,63.44-78,43-9.5-5.658-19.865-17.158-24-28-1.6-4.185-.789-9.4-3-13-5.534-3.453-25.963-2-35-2l-88,1v1h-1c-0.407,30.618-37.872,59.2-73,45-18.511-7.483-28.988-24.459-33-47H106c-0.86-.649-3.144-1.338-4-2-20.758-6.637-14-48.305-14-75,0-31.213,0-60.266,0-93,0-11.708-2.794-31.891,2-40,7.421-12.552,19.845-10.541,35-13C131.285,196.251,138.568,176.635,160,177ZM437,301h71c-0.259-13.524-22.693-43.477-29-55-1.818-3.321-5.529-14.378-8-16H412c-2.811-1.854-10.487-1.128-15-1-5.346,10.465-2,34.739-2,49V395c-3.186,1.843-5.251,3.361-10,4-1.836-1.582-5.987-2.779-7-5V157c-13.61-4.478-43.555-1-60-1H186c-4.5,6.713-9.844,9.435-10,21,3.609,1.24,9.883,1.071,15,1,5.111-3.17,30.68-1,39-1l88,1c8.036,0,32.5-1.72,36,0,6.7,2.72,4,35.418,4,46V371c-1.2,2.113-.311,3.431,0,7-5.96,3.064-17.966,2-27,2H273v-1c-4.288-1.591-4.863-4.679-8-7a105.716,105.716,0,0,0-21-12c-31.13-12.884-61.4,3.312-76,20-10.516.252-35.007,3.064-40-3-5.316-7.069.769-20.256-1-29-2.914-14.406.5-32.089,0-47-0.827-24.8-1.015-49.047-1-73-3.856-1.322-10.614-1.073-16-1-1.021.8-.274,0.355-2,1-6.4,11.4-3,38.383-3,55V415a18.068,18.068,0,0,1,4,3h58c7.761-35.327,51.241-56.423,85-32,5.959,4.311,12.528,13.305,16,20l4,12H397c2.745-5.247,3.9-11.636,7-17,9.763-16.89,37.588-32.589,65-22,3.909,1.51,9.471,5.382,13,8,4.816,3.573,11.209,11.605,14,17,1.684,3.256,2.009,12.305,5,14h12c1.021-.8.274-0.355,2-1,1.827-5.38,1.078-14.972,1-22,2.939-4.677.007-14.321,0-21-0.019-18.64,3.044-42.585,0-58H429c-2.818-3.5-5.348-2.857-6-9-1.329-2.794.8-13.014,0-19-1.141-8.582-2.551-27.145,1-36,7.994-2.69,22.18-1.082,32-1,1.18-.8,1.681-0.773,4-1,2.407,3.955,3.95,5.075,4,12-5.757,3.549-16.1,3.156-26,3C434.962,274.051,436.917,290.056,437,301Zm46,42a62.538,62.538,0,0,1,13,1c1.043,3.528,1.974,5.533,2,11a35.383,35.383,0,0,1-3,3c-2.522,2.023-6.21,2.1-11,2a18.711,18.711,0,0,0-5-3C477.9,349,478.687,347.535,483,343Zm-37,48c-2.682,1.632-6.607.712-10,2-8.757,3.325-18.093,11.748-22,20-12.133,25.63,11.362,61.169,41,54C499.632,456.2,496.568,390.675,446,391Zm-235,1c-3.769,2.525-9.134,2.6-13,5-8.09,5.024-14.271,14.741-17,25-8.144,30.62,25.795,54.429,53,44,18.336-7.029,32.572-36.42,18-58C244.036,396.206,231.688,391.526,211,392Zm8,24c7.258,2.711,12.485,5.463,13,15a11.725,11.725,0,0,0-2,5l-6,5c-12.318.5-17.419-3.783-17-16,2.081-1.567,2.951-4.588,5-6C214.186,417.493,217.062,417.578,219,416Zm227,0c11.2,0.09,15.544,5.788,15,18-1.262,1.359-1.365,1.768-2,4-12.511,4.818-22.851,6.413-22-14C439.584,422.092,444,418.55,446,416Z"/>
</svg>
