<svg xmlns="http://www.w3.org/2000/svg" width="56.5" height="56.5" viewBox="0 0 565 565">
  <defs>
    <style>
      .cls-1 {
        fill: #dda833;
        fill-rule: evenodd;
      }
    </style>
  </defs>
  <path class="cls-1" d="M452,422h-3v4h-2c-1.021-.8-0.274-0.355-2-1,1,4.812-5.62,12.48-12,13v3h-3c-0.352.859-11.554,12.745-12,13-1.67.953-3.618-1.372-4-1v3c-3.688,3.612-8.163,4.352-13,7-1.99,1.089-3.864,4.842-6,6-28.952,15.691-62.208,26.993-106,27-13.579,0-26.116-.456-36-3h-7c-15.244-5.688-31.384-8.6-46-15-9.055-3.967-16.379-12.728-27-15v-3h-5c-3.087-4.548-6.536-4.805-11-8-5.822-4.167-34.172-33.119-35-40h-3c-1.1-5.334-4.945-5.339-7-9l1-3c-0.924-1.685-4.866-3.242-6-5-3.532-5.474-3.961-10.974-7-17l-3-2c-7.709-16.348-12.191-33.047-18-51-2.9-8.947-.9-16.174-3-26-1.207-5.662-6.065-30.241-3-37,4.181-9.22,2.636-21.283,6-32,5.005-15.947,10.188-36.085,18-50,5.828-10.381,14.264-21.51,21-31q0.5-2.5,1-5c4.544-5.712,14.1-8.919,16-17h3c3.761-9.515,30.493-29.985,40-35,3.79-2,6.327-.842,10-3,3.6-2.118,8.874-8.08,14-10,18.853-7.062,42.1-11.829,60-17,7.344-2.121,33.133-1.519,40,0,11.751,2.6,20.771-.4,31,3,21.348,7.09,44.258,13.946,63,24,1.883,1.01,3.386,4.907,5,6h5l1,3c6.453,4.822,15.974,8.025,20,15h-1v1c13.133,1.174,33.112,32.4,38,41,1.19,2.095,5.841,3.755,7,6,6.12,11.859,16.407,31.67,22,44,2.077,4.578,1.043,13.4,2,16,12.474,33.859,11.309,89.962,0,122-6.834,19.36-18.933,41.746-27,57C464.2,407.19,453.375,412.694,452,422ZM275,72c-5.014,3.069-12.079.121-19,2-13.981,3.8-28.873,6.776-42,12-50.828,20.23-91.234,60.879-113,110v6c-4.647,12.864-9.527,26.371-13,39v11c-4.7,21.4-1.949,46.97,3,66v9c1.625,5.819,5.218,14.325,7,20v6c27.857,54.508,53.927,91.4,112,116,20.959,8.879,62.75,22.358,95,15h12c18.534-4.685,39.856-7.9,56-16,47.906-24.038,84.257-61.8,106-112,7.241-16.718,8.757-34.26,13-51V293c5.943-27.817-2.916-59.629-10-79-25.692-70.251-65.022-107.421-134-134l-10-1C320.185,72.831,298.907,72,275,72Zm5,28c24.534-.321,43.393,4.21,61,10,9.055,2.978,14.809,2.673,23,6,12.894,5.237,23.531,15.3,34,23,28.9,21.251,44.6,48.048,60,83,9.865,22.387,9.622,79.094,1,102v8c-0.048.129-10,22-10,22h-5c-1.021-.8-0.274-0.355-2-1-0.631-1.754-.193-0.971-1-2,2.1-6.977,7.436-14.8,10-21v-8c1.713-6.644,4.247-17.7,6-25,2.419-10.069-.425-50.428-3-57-0.2-.513-2.75-2.254-3-3-2.568-7.652-.909-12.375-4-19-20.645-44.255-43.1-68.868-86-91-19.856-10.244-53.243-23.063-86-16H260c-15.145,5.534-33.014,8.714-47,16-35.312,18.4-65.409,53.811-81,92-2.636,6.456-.76,9.974-3,17-0.269.844-2.733,3.156-3,4-1.82,5.747-5.35,34.429-4,41,3.308,16.1,1.946,32.6,7,47,1.839,5.239,10.3,17.89,9,22-1.3,3.309-2.82,2.886-5,5h-2c-2.334-7.317-7.538-14.772-10-22-3.711-10.894-4.951-22.436-8-33-2.323-8.048.055-50.767,2-57,0.261-.838,2.735-3.162,3-4,2.337-7.4.61-11.661,3-18,14.921-39.568,41.364-74.1,75-95,15.178-9.432,36.8-16.3,55-22C259.136,101.454,273.748,103.868,280,100Zm6,79h5c2.035,2.921,6.331,5.061,8,8,2.573,4.531,2.153,9.955,4,15,2.158,5.893,6.2,13.077,8,19,2.848,9.371,2.6,17.5,5,27,1.506,5.967,7.289,16.6,4,25-0.992,2.532-4.988,6.152-6,9-1.912,5.38-2.794,10.533-4,15-2.864,10.607-1.282,25.926-7,34-1.073.752-.946,0.6-3,1v-2c-4.317-6.728,2.841-30.689,5-39,6.9-26.565,1.1-54.89-8-76-2.846-6.6-1.822-16.788-8-20-8-3.621-10.478,18.906-13,25-4.31,10.415-13.712,36.374-10,53,4.237,18.978,8.926,34.491,9,55a6.1,6.1,0,0,0-2,2h-1v-2c-5.643-7.632-4.589-32.681-8-44-2.334-7.746-9.473-7.8-10-19,4.723-5.8,2.457-21.587,5-29,3.415-9.955,9.288-21.318,13-31,2.515-6.559,2.335-13.625,6-19C279.933,183.165,283.9,181.9,286,179Zm84,240c5.5,0.621,8.549.138,15,0,1.622-4,2.769-6.414,8-7,4-.682,7.464,3.086,8,9a68.364,68.364,0,0,0-7,11c-10.084.5-28.246,0.49-40,1a21.509,21.509,0,0,1-1-7c1.863-.993,3.412-3.058,5-4,4.868-2.886,6.073,1.568,6-8-7.484-11.352-6.432-26.93-17-35-13.722-10.479-43.69-12.1-67-10H251c-19.863,8.458-38.206,20.771-38,52,3.335,2.35,5.084,6.234,8,9v2h-2c-5.056,1.816-28.032.549-35,0-1.8-5.406-5.306-7.976-6-15,4.036-2.964,3.277-4.979,11-5,3.887,6.293,8.413,7.752,17,7,1.483-30.325,10.545-53.019,38-57-0.777-7.327-6.9-11.259-9-18-1.951-6.25,1.011-13.6-1-19-8.135-21.856-18.081-45.766-24-69-2.431-9.541,1.672-18.784,3-25,3.225-2.037,8.278-5.214,11-8,13.465,0,24.207,9.5,26,21-3.626,1.731-5.254,2.87-11,3-2.1-4.043-7.862-13.44-13-11-4.4.824-5.559,0.87-6,6-2.12,3.468,4.117,27.09,6,32,6.066,15.812,13.181,34.554,19,51q2.5,15.5,5,31c2.448,0.85,6.184,1.039,10,1,3.636-2.316,13.523-1,19-1,17.481,0,32.664,2.165,47,3,1.588-2.95,2.075-5.721,2-11,1.949-3.979,1.274-16.677,4-23,7.208-16.718,11.5-34.9,18-53,3.384-9.425,10.946-23.183,7-34-4.107-1.9-6.781-1.7-12-1-1.211,4.016-5.147,9.385-10,10-1.331-3.831-3.072-3.5-4-8-0.589-.962-0.107-1.913,0-5a87.653,87.653,0,0,0,14-11c4.279-.154,11.387-0.744,14,1,11.23,4.179,12.568,19.619,8,32-9.038,24.5-17.7,52.971-26,78-1.978,5.966.354,12.332-2,19-1.345,3.81-3.6,3.479-4,10C359.186,367.861,370.253,389.931,370,419Z"/>
</svg>
