<svg xmlns="http://www.w3.org/2000/svg" width="56.5" height="56.5" viewBox="0 0 565 565">
  <defs>
    <style>
      .cls-1 {
        fill: #dda833;
        fill-rule: evenodd;
      }
    </style>
  </defs>
  <path class="cls-1" d="M283,37a34.057,34.057,0,0,1,8,1c4.722,8.263,3.127,26.1,3,39-2.384,1.941-5.248,6.518-8,5-3.987-.952-5.757-2.262-7-6-1.752-2.617-1.746-30.375,0-33C280.025,39.909,281.438,39.371,283,37ZM148,82c2.328,0.2,2.826.193,4,1,6.128,2.107,28.566,27.262,29,35-3.057,2.973-3.459,5.156-9,6-8.97-7.4-15.925-15.792-24-24-2.154-2.19-8.144-6.064-7-11C141.731,85.848,145.98,84.06,148,82Zm274,0a30.433,30.433,0,0,1,7,1c2.234,3.453,3.741,4.022,4,10-7.752,7.438-21.937,29.447-33,31-0.771-.682-2.232-1.311-3-2-2.285-2.155-3.416-4-4-8C402.867,104.35,413.716,93.012,422,82ZM267,103c82.211-1.173,118.723,30.419,146,84,13.343,26.209,20.2,71.82,8,105a186.126,186.126,0,0,1-25,46c-15.059,20.344-27.236,20.985-34,53a18.324,18.324,0,0,1-6,1c-1.838-1.238-5.7-1.089-9-1a10.925,10.925,0,0,0-2-3c5.27-28.207,16.224-35.758,30-54l7-6a164.252,164.252,0,0,0,22-41c2.572-7.088,3.424-15.131,5-22,3.813-16.623-1.645-42.146-5-53-13.2-42.694-31.458-58.989-67-79-10.476-5.9-41.863-16.523-61-12-7.875,1.861-18.05,2.4-26,5-41.051,13.444-64.334,38.765-80,78-5.866,14.692-11.955,42.114-7,63,2.355,9.927,3.46,19.688,7,29,13.424,35.31,51.238,51.906,55,94a53.4,53.4,0,0,0-8,7l-6-2c-4.353-9.624-6.315-22.473-12-31-2.744-4.116-7.077-6.943-11-10-7.659-5.969-15.411-17.031-21-25-20.149-28.729-32.94-86.756-16-129,8.007-19.968,18.1-36.217,30-52,12.259-16.259,40.434-30.756,61-39Zm10,53c8.754-.341,17.463-1.037,21,4,3.677,5.455,2.938,14.913,7,20,4.217,4.091,10.69,6.026,19,6,3.712-3.91,10.08-8.591,17-9,3.436,5.32,10.754,13.475,16,17-3.718,7.627-9.372,14.668-10,25,4.029,4.461,4.607,10.771,11,13,6.533,3.738,15.009-.4,18,7,3.5,5.242.853,19.37,0,23-7.316,1.843-16.745,5.9-24,9-2.508,5.265-6.017,12.954-3,21,1.2,3.195,7.968,10.339,6,13-2.043,6.792-10.549,14.73-18,16-3.734-4.731-12.95-8.825-21-9-4.479,3.359-9.919,3.065-12,9-4.082,5.829-.694,14.109-8,17-4.012,2.6-16.013,1.132-22,1-3.835-6.013-6.863-13.783-9-22-5.445-2.6-8.608-4.882-17-5-3.89,3.733-11.29,7.478-17,9-4.262-5.3-15.442-8.586-17-16-1.128-5.367,6.5-11.935,8-16,1.849-5,.264-8.944,0-14-1.817-1.31-2.306-3.8-4-5-6.123-4.323-19.617-3.056-23-10-3.518-4.775-1.592-14.712-1-21,6.58-4.042,17.366-4.2,23-8,2.614-1.763,3.828-5.725,6-8,0.267-15.036-6.744-18.014-9-29,5.716-5.345,11.651-11.287,17-17,8.606,2.367,11.359,9.3,22,10,3.854-3.428,10.892-3.805,13-9,4.368-5.254,2.961-16.453,8-21C274.762,156.312,276.318,156.637,277,156Zm-44,40c0.491,17.921,12,19.718,1,38-3.114,5.176-10.021,9.79-16,12-2.285.845-5.727-.659-7,1v5c15.865,2.819,27.9,12.31,29,29,0.336,5.1-6.525,13.56-7,22,8.931-.725,15.08-10,24-8,3.138,0.7,6.976,3.83,10,5,5.515,2.134,8.031,1.416,10,7,4.393,6.336.2,15.508,11,16,2.1-4.222,1.884-9.957,4-15,2.729-6.5,18.256-12.866,26-14a30.755,30.755,0,0,0,19,8c-0.384-6.984-3.49-8.97-5-14-2.569-8.559,2.075-19.225,6-25,5.177-7.616,21.106-6.334,22-16-14.8-2.835-20.054-7.875-25-21-0.987-2.619-4.816-5.648-4-10,1.314-7.01,6.428-10.054,7-19-8.171.338-10.7,4.552-17,6-4.052.931-20.282-6.154-23-8-7.684-5.219-5.177-20.628-15-22-3.424,16.258-13.074,28.656-31,30C248.148,199.484,239.491,196.319,233,196ZM75,220h39a66.75,66.75,0,0,0,6,7c-1.253,5.685-3.748,6.646-7,10-13.689.153-30.382,0.705-41-2a17.243,17.243,0,0,0-3-5C70.141,224.768,72.452,223.43,75,220Zm382,0c12.292-.107,27.378-1.088,38,1,0.961,1.766,1.257,1.68,2,4,1.756,2.561.641,6.192,0,9-8.781,4.2-30.277,4.357-42,2C449.126,227.406,450.4,226.711,457,220Zm-174,3c16.464,0.015,33.435,15.438,26,35-3.585,9.433-11.261,10.937-18,17-16.231,1.07-38.151-12.512-30-34C265.369,229.483,273.252,229.2,283,223ZM273,385v7c-2.448.85-6.184,1.039-10,1-3.777-6.688-8.586-19.7-8-27l3-1c1.681-1.344,3.143-1.637,6-2,1.156,1.206,4.072,1.7,5,3,1.3,1.819.06,4.955,2,6h27c1.021-.8.274-0.355,2-1,1.815-4.7,2.682-6.63,9-7,2.772,2.823,5.053,3.039,6,8-6.839,8.2-3.6,25.3-18,26-1.372-2.542-1.917-3.5-2-8,0.8-1.18.773-1.681,1-4C290.361,384.087,280.306,384.921,273,385Zm-57,22c12.465,8.025,55.634,4.14,76,4,3.02-3.694,8.58-.01,18,0,16.229,0.017,38.083-2.449,51,0,2.6,3.86,4.7,4.3,5,11l-5,6H212c-1.021-.8-0.274-0.355-2-1C202.894,413.712,207.675,415.152,216,407Zm1,43h8c4.114,7.708,19.636,5,31,5h92c1.919-1.772,3.136-1.9,7-2,3.225,4.017,6.394,3.852,7,11-2.388,2.557-2.162,4.6-6,6-4.884,3.051-29.023,1-37,1H251c-11.714,0-25.932.965-36-1-2.56-3.96-4.7-5.307-5-12C212.43,455.5,214.654,452.526,217,450Zm34,46c23.214-.115,51.7-3.12,73,1a29.369,29.369,0,0,0,4,6c-0.947,4.1-3.62,9.58-7,11H253v-1c-3.049-.921-4.768-2.251-6-5C242.193,502.813,247.88,499.064,251,496Z"/>
</svg>
