<svg xmlns="http://www.w3.org/2000/svg" width="56.5" height="56.5" viewBox="0 0 565 565">
  <defs>
    <style>
      .cls-1 {
        fill: #dda833;
        fill-rule: evenodd;
      }
    </style>
  </defs>
  <path class="cls-1" d="M380,117v3h3v4c0.833,0.041,13.46,11.276,15,14v4c1.048,1.743,4.837,3.158,6,5q0.5,3,1,6c1.34,2.209,5.072,6.356,6,9,0.7,2.007-1.258,4.459-1,5l4,3c8.552,17.529,5.674,49.417,5,73a18.324,18.324,0,0,0,6,1c2.1-1.533,8.9-1.5,11,0,11.539,3.521,12.445,15.274,12,31-4.637,3.748-3.628,14.9-5,19-4,11.96-17.156,23.783-33,24-2.374-4.507-5.608-4.261-11-3-2.5,9.551-22.607,36.19-32,38v3c-6.8,1.139-16.2,10.58-22,13-0.94.392-2.017-2.16-4-1l-1,3c-3.568,1.934-7.357.456-9,4v20c-4.77,4.264-2.663,17.138-2,24-4.6,2.817-7,6.022-16,6l-1-3c-0.752-1.073-.6-0.946-1-3,7.5-7.682,10.535-28.4,13-41-2.448-.85-6.184-1.039-10-1-2.277,1.626-10.088,2.437-11,2-3.6-1.187-3.657-1.509-4-6,0.8-1.021.355-.274,1-2,14.863,0.607,46.572-11.913,55-21,3.406-3.673,11.132-5.672,12-9h-1v-1h3v1h1v-4h3v-3h3v-3h4c-1.5-6.7,3.032-4.89,6-9v-5c0.963-1.868,5.054-3.305,6-5l-1-3c1.481-2.655,5.629-6.182,7-9v-5l3-1v-6c0.7-2.377,3.365-6.346,2-11-0.592-2.02-3.578-6.425-2-11,0.534-1.548,3.393-2.788,4-4v-5l3-1v-5c0.321-.973,2.775-3.423,3-4,2.484-6.376-1.315-40.3-2-43q-0.5-10.5-1-21c-16.931-42.379-40.658-69.783-85-88l-14-1c-37.354-11.86-72.454,9-93,24-5.787,4.224-13.511,7.7-16,15h-3v4c-19.99,13.086-28,55.564-28,90,0,12.016.17,38.391,7,42,0.644,0.439,3.056.352,5,1-1,2.9-3.244,4.309-4,7-3.284,11.685,10.569,31.11,14,38,15.978,32.085,46.931,48.427,88,56a18.324,18.324,0,0,1,1,6c-2.072,1.283-2.3,2.077-5,3-2.934-4.086-10.919-3.266-18-3l-1,3c-3.192,4.853,2.226,32.445,4,35,4.07,2.894,5.136,1.492,5,9a21.509,21.509,0,0,1-7,1c-4.653-2.829-10.831-2.028-15-5-1.262-1.359-1.365-1.768-2-4,3.574,0.165,5.464.842,7,0,1.438-2.15,1.113-7.308,1-11-2.426-3.824-2.079-24.636-2-31-14.162-2.191-43.9-23.979-51-34-1.425-2.01-.428-4.794-2-7-1.1-1.539-4.78-2.45-6-4-5.488-6.97-3.34-13.6-16-14-6.336,8.523-18.168-2.2-22-6-5.733-5.684-12.443-11.23-15-20v-8c-0.234-.727-2.817-2.512-3-3V268c-0.409-2.034-2.193-8.448-1-12,0.876-2.608,2.431-2.681,3-7h3v-3c5.772-.828,2.147-1.689,5-3,4.338-1.994,13.69.245,16,0,3.924-10.9,2.094-30.751,2-45,1.871-3.112-.5-8.842,1-13,2.447-6.785,4.725-16.707,8-24,12.8-28.5,41.294-59.865,71-71,6.315-2.367,10.622-1.778,17-4,7.934-2.765,38.869-8.957,52-5,15.734,4.741,35.059,10.416,48,19C363.816,104.521,371.335,115.551,380,117ZM251,290v-3h-3v-3c-23.737-13.338-27-45.459-27-83V168c5.3-16.484,34.483-32.949,56-34,2.486,2.616,3.49,1.906,4,7-16.744,9.75-41.659,8.956-50,28-4.05,9.248-1,28.571-1,40,0,28.406,3.17,45.2,14,62,3.55,5.509,11.4,8.389,16,13v3l3-1,3,4h4c6.731,3.568,10.677,9.8,22,10,4.832-6.541,20.386-8.531,28-13l1-3c19.906-17.991,21.276-23.056,30-53V211c2.237-10.382,1.89-32.256-3-40-5.664-8.971-18.318-19.23-29-23-9.144-3.227-21.693.09-23-11a6.1,6.1,0,0,0,2-2c3.777,1.2,10.765,3.2,16,2,1.181-.271,2.957-2.273,5-2,8.809,1.177,33.715,21.43,38,28,6.223,9.54,3,27.373,3,43,0,57.663-19.355,85.577-63,99-10.918,3.358-31.752-4.488-37-8C256.605,294.728,255.813,291.325,251,290Zm36-116c8.175,3.716,3.861,15.214,16,16,4.534,2.926,18.374,1.133,25,1,1.533,2.464,2.291,2.276,3,6-6.851,4.513-12.2,4.2-24,4-11.523-11.815-29.8-4.867-43,0-5.451,2.01-12.6,1.658-17,3-1.225-2.281-1.638-2.251-2-6-0.707-1.545-.129-0.135,0-3,1.638-1.493,3.5-3.364,5-5C268.743,194.1,281.449,186.978,287,174Zm1,24h2c1.309,13.288,4.869,24.8-1,38a2.834,2.834,0,0,1-1-1C282.183,228.548,286.95,202.207,288,198Zm-3,71h6c2.217-3.952,6.11-8.812,11-10,0.4-4.959,2-4.489,3-7,2.872-7.19-.937-20.119-2-25h3c3.935,4.192,4.263,8.131,4,17-1.359,2.323.321,6.837-1,10-2.511,6.01-14.477,21.2-22,22-4.772-4.939-9.267-7.762-10-17h1v-1c1.754,0.631.971,0.193,2,1A15.944,15.944,0,0,1,285,269Zm-21-17c-0.993-4.4-2.629-2.439-4-5-1.826-3.41-1.955-10.971-2-16,2.556-1.479,3.147-2.4,7-3a6.1,6.1,0,0,0,2,2c-2.553,11.775-.807,11.6,1,21a2.834,2.834,0,0,0-1,1h-3Zm-92,56c0.246-9.49-3.6-14.3-6-21-2.981-8.337-3.726-17.434-6-25-2.2-7.325,1.138-12.381-8-13-4.7,3.717-9.618,3.642-10,12-1.805,2.75-.587,8.373,0,11,3.071,13.749,3.775,21.854,12,30,2.669,2.643,7.3,3.407,10,6h8Zm248-56c-0.541,10.614-1.7,22.758-5,32-2.572,7.2-7.1,14.945-8,24a15.7,15.7,0,0,0,5,1c1.3-.877,2.467-0.894,5-1,3.071-4.174,8.936-5.843,12-10,7.09-9.619,11.363-24.959,8-42a24.935,24.935,0,0,1-5-4C426.28,251.85,424.79,251.519,420,252ZM215,419q0.5,5,1,10h-1v1c-10.053.06-22.843,4.779-27,11-3.789,4.617-3.707,13.374,0,18,7.358,5.033,15.705,2.032,26,5,1.865,0.538,8.316,2.414,11,3h23c26,7.393,61.635.037,89,0,16.334-.022,53.836-2.088,55-15,1.96-3.025.274-7.511,0-12-11.809-2.529-20.9-12.3-35-11,0.161-5.018,1.479-7.272,3-11,20.749,3.9,40.07,11.97,43,34-4,3.865-2.89,13.28-10,17-5.471,2.862-10.373.967-17,3-29.858,9.159-103.994,12.892-140,5-27.534-6.035-60.359,3.558-60-31,4.917-5.26,7.534-14.479,14-18,2.961-1.612,8.289-1.348,11-3l1-3C204.848,420.584,211.816,419.283,215,419Z"/>
</svg>
