<svg xmlns="http://www.w3.org/2000/svg" width="56.5" height="56.5" viewBox="0 0 565 565">
  <defs>
    <style>
      .cls-1 {
        fill: #dda833;
        fill-rule: evenodd;
      }
    </style>
  </defs>
  <path class="cls-1" d="M366,472c-0.186-6.836-3.274-10.754-5-16-4.855-14.753-8.03-29.378-13-43-2.417-6.624-2.1-14.8-6-20-1.3-.877-2.467-0.894-5-1-16.814,15.984-81.931,24.363-113,14-10.621-3.542-27.745-14.317-38-15v2c-5.6,8.133-5.345,19.936-9,30-5.092,14.021-11.728,31.026-14,47,2.091,1.121,1.832,1.434,5,2,4.647-4.082,25.65-9.857,33-11,4.933,5.822,15.157,21.478,24,22,0.553-11.794,10.963-34.12,15-45,1.922-5.18.37-9.634,5-12,1.725-1.054,5.961-.541,8,1,2.347,0.708,2.234,1.025,4,2-8.72,17.307-12.626,40-20,58-3.433,8.382-1.934,15.273-12,17-5.2-5.14-12.551-8.113-17-14-2.387-3.159-5.445-10.4-9-12h-7c-2.13,1.961-33.871,12.1-38,13-6.2,1.356-12.188-4.038-11-10,1.213-6.089,5.249-13.475,7-19,5.414-17.086,7.619-32.447,13-50,3-9.792,7.336-19.812,9-31-26.928-25.166-47.985-51.523-59-93-6.023-22.68-1.185-59.931,5-78,16.969-49.576,51.276-79.664,99-99,17.978-7.284,49.823-13.39,75-7,59.576,15.121,96.389,48.848,118,102,10.923,26.865,13.9,72.848,2,102-7.736,18.957-18.5,38.479-32,52-5.706,5.716-23.273,17.39-24,26,6.27,8.472,6.4,22.113,10,33,4.957,15,8.82,31.206,14,47,2.068,6.305,5.239,12.332,6,20l-7,6c-17.331-3.235-28.329-13.339-47-14-6.549,9.984-16.914,17.438-25,26-6.679-.18-10.349-1.1-13-5l-23-70a89.9,89.9,0,0,1,13-5c3.253,11.929,9.419,24.507,13,36,2.57,8.248,2.331,17.819,7,24,1.18,0.8,1.681.773,4,1,4.029-6.482,16.975-23.482,26-24C338.657,465.3,357.525,471.71,366,472ZM255,124c-5.822,3.548-26.257,4.026-34,7-34.289,13.169-64.923,40.731-78,75-3.335,8.74-4.8,18.911-7,28-3.479,14.384-2.174,33.355,1,46,2.587,10.306,2.1,18.224,6,27,14.537,32.746,35.5,52.975,67,69,12.9,6.56,45.465,18.256,69,13,53.471-11.941,88.833-34.466,108-80a160.441,160.441,0,0,0,7-22c5.791-22.754,1.991-49.7-4-68-15.713-48-47.223-79.57-97-93C281.507,122.9,268.458,123.953,255,124Zm8,58h4c1.5,5,16.62,42.667,19,44,4.585,2.84,42.573,5.917,51,6,0.961,1.766,1.257,1.68,2,4-9.563,6.093-17.019,16.23-26,23-2.928,2.207-10.509,5.838-12,9v8c3.724,5.482,9.695,37.661,11,46h-1v1c-1.754-.631-0.971-0.193-2-1-16.805-4.491-27.138-22.613-46-24-7.912,7.618-21.26,12.553-31,18-3.351,1.874-8.746,6.262-11,6-1.829-1.568-1.4-.882-2-4,3.465-4.622,11.161-44.4,10-51-5.854-2.924-34.721-28.294-36-34a2.834,2.834,0,0,0,1-1c16.242-.982,32.664-4.671,50-5C251.444,213.362,255.189,195.176,263,182Z"/>
</svg>
