<svg xmlns="http://www.w3.org/2000/svg" width="56.5" height="56.5" viewBox="0 0 565 565">
  <defs>
    <style>
      .cls-1 {
        fill: #dda833;
        fill-rule: evenodd;
      }
    </style>
  </defs>
  <path class="cls-1" d="M232,114h3v-3h3c6.017-15.185,55-28.947,78-19,21.7,9.385,40.643,25.468,50,47,14.439,33.228.02,66.682-15,88v4c-1.533,2.635-9.346,10.542-12,12-8.909,4.9-20.177,12.244-30,15H295c-31.14,8.72-61.145-20.6-72-40l-3-2c-4.308-7-6.218-16.826-9-25V175c-0.258-1.76-1.656-4.85-1-8,2.732-13.119,3.43-24.079,9-34C222.4,126.94,230.272,121.307,232,114Zm48-13c-6.648,4.3-16.488,3.751-23,8a81.327,81.327,0,0,0-34,46c-8.514,30.936,10.228,70.123,28,81,4.869,2.98,8.635,3.343,14,6,6.845,3.39,23.233,8.405,36,5,25.322-6.754,42.313-21.038,53-42,2.4-4.717,8.324-35.547,6-44-0.474-1.724-1.754-6.867-3-9l-5-3c-0.963-2.078.776-11.23-2-16C337.494,111.509,314.806,100.684,280,101Zm68,47q-0.5,5.5-1,11h-3c-0.415-4.114-1.921-5.833-1-8C344.273,147.761,343.879,148.368,348,148Zm1,35c0.244,8.931-5.091,21.357-12,23,0.5-4,5.773-18.816,8-22C346.18,183.2,346.681,183.227,349,183Zm93,9v3c2.076,0.372,1.924.242,3,1,19.241,20.825,18.917,57.112-6,72-4.43,2.647-11.953,12.352-19,9-2.785-1.482-3.546-4.252-4-8,5.81-2.181,12.228-5.838,17-8l3,1c6.439-3.206,16.411-25.3,13-41-0.925-4.259-5.377-12.386-7-17-5.625.532-10.885-6.859-17-9-11.62-4.069-23.675,1.31-31,4v-2c1.562-2.155,1.3-6.382,2-7,7.8-7.446,23.256-8.315,35-4C435.072,187.5,437.034,190.908,442,192ZM200,265v3c-6.81,1.493-23.9,15.2-36,11-13.984-4.856-30.589-15.241-36-28v-6c-1.665-3.874-6.791-10.87-5-18,1.1-4.372,3.657-16.168,6-20,2.57-4.2,7.442-5.353,9-11,4.617-1.342,5.485-5.2,9-7,9.863-5.06,18.856-5.489,29-2,7.376,2.537,11.033,1.443,14,8,1.051,1.521,1.586,4.915,2,7h-2c-3.431-3.02-7.036-3.235-12-5-36.82-13.092-55.042,33.2-36,59,1.021-.8.274-0.355,2-1,0.747,5.954,1.528,1.749,5,5,12.36,11.571,29.918,11.154,45,2,8.574-5.2,7.174-16.956,13-25v2c2.67,1.97,5.828,5.582,7,9-0.877,1.295-.894,2.467-1,5-4.234,2.742-7.673,7.376-10,12h-3Zm232-37c6.289,6.283-3.014,21.321-12,22v-1h1C427.365,243.55,430.819,238.844,432,228Zm-56,11c5.339,4.75,5.2,14.659,10,20,3.108,3.462,11.125,6.691,15,10-1.29,2.2-.2,4.406-1,6-1.18.8-1.681,0.773-4,1-7.947-8.966-22.025-11.944-23-28C372.721,246.1,375.184,240.832,376,239ZM270,278c46.978-.558,72.686.509,94,25l3,1c4.329,4.94,9.607,11.461,12,18,3.307,9.037,3.8,20.942,6,30v10c0.2,0.547,2.715,3.039,3,4v12c4.678,18.409,10.048,35.7,10,59-3.654.973-4,2.238-8,3v-1h-1c-0.506-7.64-3.152-17.642-5-25q-1-11-2-22c-3.194-12.542-5.843-28.172-9-40-2.369-8.878,0-15.681-3-24-2.837-7.874-15.355-25.216-22-29-7.26-4.134-25.622-8.534-35-10-40.775-6.373-82.28,6.377-97,29l1,3c-0.6,1.467-3.454,2.825-4,4q-0.5,4.5-1,9c-5.381,16.193-6.116,36.445-11,55-5.043,19.157-10.078,36.481-10,65h2c7.4,4.526,18.654-1.7,28,1,8.594,2.48,28.4,2.091,43,2l10-1c35.228,4.845,78.883-.19,111-1,2.456,3.693,5.324,7.131,4,12-3.9-1.056-12.326,0-19,0H315c-56.105,0-99.809-1.006-150-1-23.442,0-76.643,7.283-78-14-4.085-4.648,3.046-44.072,5-52,6.116-24.82,2.819-61.5,15-80,3.239-4.921,11.726-14.3,17-17h5q0.5-2,1-4l5,1,2-4c5.363-2.911,12.362-3.1,20-3a25.086,25.086,0,0,1,1,8c-3.544,2.231-5.373,3.1-12,3-1.45.963-3.84,0.034-6,1-7.99,3.575-19.124,12.082-24,19v4c-1.355,2.468-5.909,6.38-7,9q-0.5,11.5-1,23c-2.724,9.272-3.843,23.211-6,33v10c-3.928,15-5.962,31.355-6,50l3,1c4.176,2.638,15.868,1,22,1,19.464,0,43.38,2.506,61-1v-7c-6.455-7.484,5.874-40.052,9-46q0.5-8.5,1-17c5.057-16.983,5.979-39.826,12-56q0.5-5,1-10l5-3c9.333-13.346,18.081-24.305,34-31C251.7,280.762,263.123,282.415,270,278Zm-88,14c6.658,1.811,12.992,6.935,19,10,0.186,5.464.78,7.668,0,12a14.124,14.124,0,0,1-4,1c-4.382-5.952-15.285-6.785-18-14C180.332,298.894,181.006,293.915,182,292Zm214,1h4a25.086,25.086,0,0,1,1,8c1.243,1.567.642,0.51,0,2a23.622,23.622,0,0,1-13,6c-0.968-2.4-1.716-5.675-4-7v1h-1v-1c-0.8-1.021-.355-0.274-1-2C386.062,298.381,393.025,296.026,396,293Zm28,0c18.755-.3,21.447,7.326,34,9v3l5,1c1.648,4.716,5.7,5.435,8,9,3.333,5.178,7.116,12.168,9,18,3.716,11.5,3.479,26.478,6,38v14c3.327,9.6,3.719,23.5,6,34v19c1.209,4.477,2.876,7.857,3,15-3.188,3.488-4.127,8.108-9,10-6.013,5.6-12.98.13-22,2-14.689,3.046-35.5,1.145-52,1-1.663-4.614-4.271-4.024-5-10,5.709-1.894,15.637-1,23-1h49c0.86-.649,3.144-1.338,4-2,1.541-2.312,1.119-8.105,1-12-4.955-8.2-.863-24.632-4-35-5.182-17.13-2.772-34.921-8-52q-1-10.5-2-21c-2.882-4.917-8.1-7.9-9-15h-4c-5.873-12.182-22.949-10.809-34-18A36.086,36.086,0,0,0,424,293Zm-90,32c2.076,0.372,1.924.242,3,1,4.831,4.14,6.78,12.06,2,18v-1C335.1,338.412,331.539,329.882,334,325Zm7,20c5.878,6.536,5.952,18.017,6,28h-1v-2C342.09,366.557,341.008,352.494,341,345Zm12,58h-4c-0.635-9.69-2.921-16.967-3-29h2c1.667,3.1,2.1,6.486,2,12C352.056,389.214,353.1,395.306,353,403Z"/>
</svg>
