<svg xmlns="http://www.w3.org/2000/svg" width="56.5" height="56.5" viewBox="0 0 565 565">
  <defs>
    <style>
      .cls-1 {
        fill: #dda833;
        fill-rule: evenodd;
      }
    </style>
  </defs>
  <path class="cls-1" d="M297,290c0.187,8.933.677,20.029-2,26l-10-1-1-3c-3.348-5.461.269-17.13-2-23-12.7,2.172-38-5.747-48-11-5.091-2.674-8.6-8.564-15-10v-3h-3v-3h-4c-3.459-9.558-13.829-14.589-18-22-6.175-10.972-9.7-23.59-14-36V193c-4.383-20.377,2.195-37.17,8-50,1.671-3.693.227-6.921,2-10,11.285-19.6,30.91-39.366,49-49,6.1-3.248,10.383-1.022,18-4,0.511-.2,2.255-2.756,3-3h10c0.488-.183,2.274-2.761,3-3,12.96-4.265,41.771,1.76,51,6,37.305,17.139,55.893,40.351,70,84,2.751,8.511-1.041,42.331-3,48-0.288.832-2.715,2.385-3,3-4.864,10.482-6.91,20.743-13,30-4.392,6.675-12.281,11.49-18,17-2.9,2.792-5.49,8.019-9,10h-4c-3.612,2.326-8.569,7.481-13,9-2.15.737-4.253-1.27-5-1l-2,4C318.052,287.151,304.942,289.71,297,290ZM282,88c-2.42,1.453-6.412.094-10,1-7.474,1.888-16.515,3.727-24,7-26.249,11.48-42.58,34.593-53,62-3.228,8.491-1.885,29.34,0,37v10c9.947,31.208,30.768,53.225,59,66,6.895,3.12,28.09,7.485,39,5,11.176-2.546,23.3-3.472,33-8,18.765-8.76,41.019-33.337,49-53q0.5-5,1-10c6.727-21.631,2.835-40.074-4-58C358.868,112.562,328.9,88.1,282,88ZM480,437h-3v5c-5.355,3.574-7.6,10.216-13,11v4c-6.259,3.853-10.979,10.578-17,14-13.261,7.536-43.576,19.529-63,16-2.211-3.444-6.082-7.464-8-11v-4c-4.451-6.323-16.624-15.4-18-24a31.266,31.266,0,0,0,9-7c1.754,0.631.971,0.193,2,1,3.855,3.536,13.316,15.055,14,21h3v3a16.042,16.042,0,0,1,6,7c38.233,3.544,74.633-29.957,85-58,10.15-27.456.1-73.3-18-84v1h-1v-1c-0.474-.917.089-2.294-1-4-0.511.209-1.091,1.606-3,1l-9-10c-5.739-3.133-9.921-3.077-16-6l-2-3-15-1c-29.352-7.646-56.33,10.772-67,29-4.105,7.012-9.865,9.233-10,21,4.635,4.478,6.965,11.983,7,21-3.781.936-5.626,2.362-10,3-3.7-6-6.5-19.552-12-24-7.438-6.016-17.941-7.926-25-14a44.275,44.275,0,0,0,1-9,25.086,25.086,0,0,1,8-1c3.507,2.586,8.233,2.562,12,5l4,5c3.077,1.477,4.722.231,7,0,7.241-25.883,26.876-38.476,52-47,9.032-3.064,30.32-7.789,42-3,2.739,1.123,9.275,4.812,12,6l8,1,4,5c4.819,2.575,8.919,2.077,13,5,18.2,13.037,45.11,58.731,34,97C489.45,416.783,482.068,426.659,480,437ZM103,426h3c2.847,8.178,11.843,12.056,13,21,3.245,0.828,1.528-.49,3,2h-1c-0.99,1.01.985,0.988,1,1,9.328,7.541,25.662,16.244,40,22,3.466,1.391,19.778,2.228,22,1,9.14-5.052,11.95-28.584,23-30,1.89,2.855,3.645,3.576,7,5-1.707,8.858-7.971,18.506-13,25l-4,2q0.5,2,1,4s-8.892,9.938-9,10c-4.9-3.494-12.8-.024-20-2-20.985-5.759-41.451-15.49-55-29-4.157-4.145-10.181-6.526-11-14h-3c-1.59-7.664-6.5-9.448-9-15v-7l-3-2v-8c-0.522-1.084-3.438-1.552-4-3-1.564-4.028-3.939-24.385-3-29,2.076-10.2,6.115-27.676,11-36,3.045-5.189,9.35-9.827,11-16h3v-4c4.539-3.052,7.5-9.409,12-12,11.476-6.614,24.908-13.739,38-18,10.073-3.278,29.652-.406,37,2,31.588,10.341,46.132,22.051,58,52,8.692-3.19,12.092-9.328,23-10v2c1.664,2.069,1.91,4.155,2,8-4.14,2.377-9.55,6.433-14,8h-6c-7.993,3.834-5.731,12.488-19,13-2.057-3.091-3.46-2.926-4-8,9.695-8.647,3.116-20.179-4-28-3.991-4.387-7.8-12.141-13-15-9.832-5.409-34.191-15.243-52-11-18.31,4.363-41.662,14.839-49,24-0.2,3.656-2.657,8.615-6,12h-3q0.5,2,1,4l-4,3,1,3c-4.243,9.468-12.108,25.781-8,43C98.433,406.2,102.664,415.232,103,426Z"/>
</svg>
