<svg xmlns="http://www.w3.org/2000/svg" width="56.5" height="56.5" viewBox="0 0 565 565">
  <defs>
    <style>
      .cls-1 {
        fill: #dda833;
        fill-rule: evenodd;
      }
    </style>
  </defs>
  <path class="cls-1" d="M389,409h-3v3c-12.72,7.021-22.073,20.869-32,31-3.447,3.518-14.931,10.2-16,12,0.8,1.021.355,0.274,1,2h-2c-1.021-.8-0.274-0.355-2-1-0.195,2.328-.193,2.826-1,4-1.021-.8-0.274-0.355-2-1-2.312,8.481-17.29,14.34-19,19h-3c-3.348,6.876-9.953,11.865-20,12-2.156-2.278-2.731-.362-6-2-1.938-.971-3.373-4.831-5-6h-4l-5-6h-3c-1.189-.874-0.019-2.972-1-4l-3,1c-4.672-2.805-7.479-9.957-12-13h-4c-5.675-3.229-7.507-11.116-15-13v-3h-4l1-3c-13.731-1.682-15.351-19.923-29-22v-3h-3v-3h-3v-3c-4.649-.78-11.824-9.718-13-12h1v-1h-3v-3c-13.369-7.715-20.617-23.011-29-35-1.412-2.019-5.753-3.734-7-6-8.146-14.8-18.83-35.617-25-55-2.732-8.583-1.635-15.572-4-25-1.614-6.435-6.7-31.875-3-42,3.032-8.305,5.294-21.516,8-29v-7l3-2q-0.5-2-1-4c0.509-2.1,3.325-4.256,4-6v-6c0.238-.565,2.648-2.243,3-3,2.333-5.024,2.835-9.933,6-14l4-2c0.435-.731-1.956-2.059-1-4,0.572-1.161,3.333-1.114,4-2,3.811-5.065,1.72-10.276,9-12v-5c11.338-7.461,18.268-20.958,29-29,12.191-9.135,27.53-19,42-25,14.732-6.107,32.124-8.317,48-13,11.663-3.44,41.64.574,51,3,8.759,2.27,16.127.683,24,4,41.514,17.493,73.226,39.743,95,77l5,4c5.475,8.384,9.275,19.631,13,29q0.5,4,1,8c0.834,1.969,4.237,5.627,5,8,2.975,9.254.789,15.543,3,26,0.7,3.3,4.029,22.637,3,25-4.6,10.561-1.772,27.937-6,39-8.65,22.636-16.011,42.259-27,62-8.056,14.472-23.613,31.094-35,43C397.025,400.156,390.73,402.654,389,409ZM283,78c-6,3.63-15.218-.386-23,2-12.329,3.78-28.146,7.552-40,13-40.789,18.744-69.9,53.508-88,95v6c-0.274.772-2.773,2.452-3,3-3.615,8.75-1.657,17-4,27-5.181,22.1-1.2,47.639,4,67,2.611,9.725,2.266,17.347,6,26,20.109,46.6,61.012,82.633,97,114,13.516,11.78,26.091,23.281,41,34,7.3,5.251,10.363,12.832,23,13,3.376-4.972,8.736-6.017,13-10,9.27-8.659,19.764-16.223,29-25,34.382-32.673,71.049-65.073,97-106v-5l3-2c2.427-5.006,1.686-9.034,4-14,15.773-33.851,21.37-89.307,5-128C420.62,125.647,371.4,78.015,283,78ZM157,221c1.244,18.559-2.777,47.433,3,65,16.724,50.861,51.222,82.272,87,114,9.5,8.425,18.573,16.245,29,24,5.906,4.393,8.3,12.321,18,13v-3c6.882-2.426,10.7-9.062,16-13,13.362-9.925,22.97-21.167,35-32a332.347,332.347,0,0,0,49-55c4.961-6.91,12.154-13.958,16-22,6.446-13.479,9.125-30.077,13-45,3.831-14.752-1.527-39.014-4-49-2.739-11.061-3.79-23.35-9-32-16.44-27.3-41.4-52.052-72-65-6.416-2.715-10.634-1.156-18-3-50.165-12.561-97.375,7.778-124,34-6.973,6.868-15.217,16.308-20,25-2.881,5.236-2.619,11.181-9,13-2.283-.828-1.887.114-5,1-0.631-1.754-.193-0.971-1-2,17.121-42.495,52.575-66.223,100-79,19.445-5.239,50.236-5.811,69,1,47.906,17.389,79.892,48.859,97,97,6.6,18.571,5.316,51.561,0,70-2.272,7.878-1.184,13-4,20-17.5,43.463-48.477,72.632-79,103-12.632,12.568-25.823,25.024-39,37-2.335,2.122-12.161,9.522-14,8-15.44-7.945-31.541-24.336-44-36-1.679-1.572-4.125-1.6-6-3-12.155-9.1-24.8-22.82-34-35l-17-16c-7.221-9.667-16.444-20.3-22-31-4.311-8.3-5.548-15.91-9-25-6.073-15.99-15.092-41.64-10-65,1.2-5.508-.586-9.544,2-13C152.418,221.039,154.273,221.024,157,221Zm49,30c8.423,0.905,10,7.015,19,8,3.173-5.343,7.083-10.781,10-16h3c0.213-2.711-.18-4.457,1-6h2v-4c4.078-8.7,6.3-6.621,4-18-8.5-.815-7.6-5.623-17-6-1.593,6.734-15.167,28.232-22,29-0.527-15.979,11.61-39.8,25-40,6.595,6.209,17.392,7.827,23,15,3.267,4.178-.049,8.164,6,10,1.439,0.953,23.361,8.169,24,8,2.351-.621,5.674-4.24,8-5,8.95-2.923,21.361.072,29-3,5.687-10.725,14.317-24.71,30-25,7.674,11.072,22.658,17.985,23,36-2.329,2.939-1.5,4.865-6,6-3.219-5.891-13.805-27.628-18-31v-1h-5c-4.335,8.049-11.933,7.221-12,20,6.469,6.774,14.588,33.363,24,34,4.821-4.479,11.412-10.773,17-14v5c7.785,13.442-25.789,18.85-30,26-3.279,5.568,4.739,8.815,1,15-3.237,10.652-15.834,13.021-25,18l-3,4-5-1c-2.683.957-4.217,6-7,7-7.722,2.775-10.9-5.4-18-6-2.992,6.136-7.5,6.406-17,6-1.949-2.919-4.661-6.421-9-7h-6c-4.252-2.022-1.861-6.184-9-7-1.418.961-3.273,0.976-6,1a62.979,62.979,0,0,0-9-11c-0.068-10,2.7-12.3,3-21C222.54,270.507,205.481,269.909,206,251Zm105,22c-0.195-2.328-.193-2.826-1-4-1.879-5.508-7.242-8.3-11-12-6.5,3.3-17.917,14.152-27,8-5.454-1.669-7.9-5.932-8-13,3.7-3.641,8.61-8.25,9-15a2.834,2.834,0,0,1-1-1c-6.914-.218-18.057-6.774-21-5-2.583,2.405-15.671,28.413-16,33,4.668,4.457,5.834,9.785,15,10,11.306-6.051,28.259,21.983,36,20,5.722-1.465,11.473-17.438,25-21,0.334,8.406,16.89,23.369,25,24,1.647-2.825,2.611-3.424,3-8C331.637,282.04,325.012,273.177,311,273Zm16-43c-6.165,6.214-24.912,4.1-36,4-5.937,7.246-17.769,10.293-18,23,2.469,1.459,4.575,3.167,7,2,8.436-2.161,10.559-8.949,21-10,2.516,2.382,6.084,2.924,9,5,8.164,5.812,14.275,17.1,26,19,4.378-4.354,8.413-5.5,9-14-6.164-6.521-6.761-24.031-15-28C328.927,230.248,329.054,230.4,327,230Zm-74,53c-3.2-.257-3.191-0.994-5,0-5.425,1.189-7.883,3.324-8,10h1v1c4.832,0.423,5.4.062,10-1C251.7,288.86,252.8,288.281,253,283Zm49,2c-1.509,2.149-1.769,1.932-2,6,7.461,5.978,7.907,14.1,22,14a21.509,21.509,0,0,0,1-7C316.24,293.589,311.577,286.52,302,285Zm-41,4c-5.45,5.07-13.263,16.713,3,16,1.842-3.906,3.552-6.423,4-12C265.384,290.514,266.094,289.51,261,289Zm29,6a25.086,25.086,0,0,0-1,8c6.883,3.881,3.049,10.878,15,11,1.154-2.665,1.916-2.1,3-5,2.605-5.335-8.731-10.72-12-14h-5Zm-11,5h-7c-2.049,3.294-6.771,5.984-5,10,1.12,2.873.174,1.842,3,3,1.418,0.961,3.273.976,6,1a17.658,17.658,0,0,1,4-6Q279.5,304,279,300Z"/>
</svg>
