<svg xmlns="http://www.w3.org/2000/svg" width="56.5" height="54.8" viewBox="0 0 565 548">
  <defs>
    <style>
      .cls-1 {
        fill: #dda833;
        fill-rule: evenodd;
      }
    </style>
  </defs>
  <path class="cls-1" d="M400,268c-3.711.154-6.547,0.741-8,0-1.5-1.624-1.552-2.023-2-5l5-7c7.291-5.485,10.229-4.329,10-18-12.661.59-30.751,17.818-40,24-7.148,4.778-14.724,7.4-22,12-21.06,13.3-42.874,27.822-64,41-7.77,4.847-34.368,15.477-35,25a21.653,21.653,0,0,1,7,2c2.25,4.686,2.045,9.152,0,14-56.37,31.544-169.213,55.427-222,3-0.454-4.866-1.643-8.44,1-12,4.526-13.021,32.776-21.271,46-27,3.341-1.447,14.688-8.681,17-7a14.923,14.923,0,0,1,9,9c-14.96,3.463-35.726,14.494-48,22-5.362,3.279-10.184,1.91-11,10,7.1,4.72,14.619,10.389,23,14,36.279,15.632,99.023,7.68,131-5,9.069-3.6,35.765-8.644,37-18l-3-1c-7.919-4.955-20.444-4.26-30-7-22.156-6.353-48.775-10.372-70-18-12.133-4.36-26.485-5.4-33-15-8.561-12.619-2.69-41.974-2-58-16.217-10.25-27.9-25.49-39-41-6.2-8.668-14.588-15.491-15-30,3.063-3.309,4.209-8.446,8-11,11.245-7.575,30.246-9.964,44-15,17.857-6.539,39.269-10.134,60-15,16.728-3.927,39.053-.458,53,3,41.446,10.276,77.521,19.914,111,37-0.631,1.754-.193.971-1,2-2.624,2.71-6.377,4.293-9,7-54.637-23.8-126.281-47.636-197-26-15.6,4.771-29.865,7.362-43,14-5.283,2.67-11.053,1.663-12,9,4.106,4.074,4.84,9.812,8,15,4.287,7.04,10.005,13.372,15,20,4.3,5.7,11.2,10.681,17,15,6.845,5.1,12.6,12.36,21,16,22.4,9.71,53.576,9.032,86,9v1a2.834,2.834,0,0,0-1,1c-4.656,2.461-8.976,7.409-14,9H173c-15.834-.007-32.115-0.8-45-5-6.44-2.1-10.508-5.6-19-6-1.158,3.366-1.068,9.15-1,14-3.923,5.9-.341,23.061,1,28,11.839,3.858,22.7,12.839,37,15,4.839-4.528,10.384-7.138,16-11,2.427-1.669,4.554-5.274,7-7,20.657-14.577,41.548-27.325,62-42,18.04-12.944,35.69-28.132,54-41,26-18.271,52.932-33.687,79-52,16.232-11.4,32.853-24.52,50-35,19-11.611,99.368-37.287,107,3,2.45,12.931-9.052,25.134-14,32-14.238,19.757-30.058,33-51,46-8.041,4.992-32.337,15.623-36,23-1.615,2.879-.856,24.383-3,31l-23,69c-3.052,1.517-17.352,9.751-19,8-4.4-1.356-5.085-3.121-5-9,0.8-1.021.355-.274,1-2,3.856-2.218,12.809-5.138,15-9l3-13C392.56,292.453,399.514,280.712,400,268Zm71-148c-9.436,7.221-23.629,9.891-24,26,3.582,3.567,3.469,5.887,11,6,7.712-7.016,41.328-20.163,42-30h-1v-1C490.346,120.8,480.879,120.027,471,120Zm-67,43c-6.874,8.388-20.82,12.923-30,19-21.532,14.253-43.3,30.262-65,44-9.3,5.885-30.84,13.238-31,27,3.429,3.3,3.83,4.944,11,5,9.186-9.021,22.9-13.951,34-21,19.22-12.209,38.646-26.755,58-39,8.055-5.1,32.839-16.136,36-24,3.174-5.237-3.3-8.4-6-11h-7ZM177,206h5c6.679-10.734,21.351-9.336,39-9a6.1,6.1,0,0,0,2,2,2.834,2.834,0,0,1-1,1c-1.841,3.186-18.272,18.791-21,20H187c-1.021.8-.274,0.355-2,1-1.3,5.84-3.538,5.735-7,9-8.249.028-15.226,0.3-22-1a70.2,70.2,0,0,1-4-9c-15.074.477-33.434-10.551-34-23h28c2.672,4.017,7.907,9.413,14,10-0.212-5.331-1.5-6.038-2-11,1.685-1.271,2.316-2.729,4-4,7.941-6.557,13.384,2.009,17,6A16.531,16.531,0,0,0,177,206Zm183,72,5,1a21.509,21.509,0,0,1,1,7c-5.722,7.809-4.936,21.915-8,32-3.784,12.453-6.291,26.883-11,40-3.473,9.675-7.657,19.357-8,32,18.351,10.783,18.14,32.643,8,52-11.974,22.859-33.757,29.193-57,41-7.892,4.009-14.092,9.855-26,10-4.06-3.442-7.283-6.378-11-10-0.181-15.614,2.8-31.15,6-44,3.964-15.928,1.322-29.85,5-46,4.063-17.84,7.646-38.021,8-58,4.324-2.853,6.878-6.853,13-8v1h1L266,479a21.509,21.509,0,0,0,7,1c5.133-6.011,15.691-8.2,23-12,17.6-9.152,33.1-17.1,42-35,4.562-9.172,7.611-30.43-6-32v1h-1c-0.372,7.254-10,31.072-15,33-1.624,1.5-2.023,1.552-5,2-1.121-2.091-1.434-1.832-2-5,5.192-7.131,5.763-19.339,9-28,8.98-24.026,16.241-51.922,24-77,3.473-11.223,5.172-22.7,8-33q0.5-4.5,1-9Z"/>
</svg>
