<svg xmlns="http://www.w3.org/2000/svg" width="56.5" height="56.5" viewBox="0 0 565 565">
  <defs>
    <style>
      .cls-1 {
        fill: #dda833;
        fill-rule: evenodd;
      }
    </style>
  </defs>
  <path class="cls-1" d="M464,453h-3v5c-6.7,2.538-12.594,10.467-21,13H257c-39.659,0-85.785,3.335-122-2v-3h-5c-5.717-8.733-17.93-14.1-20-26-1.123-6.453,1-19.667,1-28V123c1.507-5.031,6.573-6.757,8-12h3v-3h3c8.293-21.494,36.434-18,66-18H418c6.262,0,16.486-1.462,21,1,4.275,2.331,30.555,30.6,31,36,0.716,8.674-1.213,22.55-1,33q0.5,10.5,1,21c-4.294,19.781-1,47.248-1,69V385q0.5,28,1,56C468.67,445.425,465.024,448.557,464,453ZM150,102c-2.535,1.93-5.882,1.257-9,3-7.277,4.07-13,13.305-19,19V418c0,6.825-1.945,20.233,1,25,8.094,22.7,49.814,16,80,16H444c3.881-5.471,11.928-8.932,14-16V128c-1.559-4.786-14.9-20.536-19-23-10.549-6.343-62.733-3-81-3H150Zm-1,18h6c1.225,2.281,1.638,2.251,2,6-2.441,2.48-2.984,4.9-3,10h2c3.522,2.177,12.692,1,18,1H383a15.7,15.7,0,0,1,1,5c-0.745,1.216-.137.992,0,4-9.9,5.045-54.282,2-70,2H144c-1.657-4.866-1.077-13.523-1-20A55.8,55.8,0,0,0,149,120Zm276,1h4c4.189,4.711,7.987,3.4,8,13,1.464,2.423.245,5.786,0,10a24.935,24.935,0,0,0-5,4H404v-2c-1.756-2.561-.641-6.192,0-9h19l1-3C425.781,130.954,423.766,124.936,425,121ZM311,229c9.688,1.2,16.08,4.6,24,7,11.858,3.593,17.169-5.114,28-3a19.69,19.69,0,0,0,4,6c-0.631,1.754-.193.971-1,2-2.132,6.536-8.366,8.743-11,14-3.574,7.132-3.161,16.348-3,24,7.751,2.365,19.3,9.392,20,19-0.8,1.18-.773,1.681-1,4-2.173,1.524-15.256,10.44-16,12v7c-5.431,16.168-10.274,26.229-33,26-1.18-.8-1.681-0.773-4-1-1.225,2.281-1.638,2.251-2,6,4.569,7.42,3.8,34.393,5,45-3.811,2.533-5.607,5.941-11,7-3.041-3.171-21.468-19.359-25-20-5.173,6.508-14.83,18.174-24,20-2.284-2.1-6.468-3.24-9-5,2.918-16.1,5.686-32.63,6-50h-2c-4.358-2.373-12.194,6.424-19,7-1.708-2.725-2.536-2.5-3-7,2.156-1.581,5.192-7.81,3-13l-3-2c-4.221-8.422-5.624-15.744-6-28-14.593.258-18.87-7.055-26-14v-6c1.8-1.639,2.292-4.3,4-6,6.1-6.061,17.779-6.01,19-17,2.364-4.293-2.344-13.252-3-19,2.671-2.318,2.133-4.54,6-6,4.263-2.645,11.952.037,17-2,4.48-1.808,11-6.01,15-9,11.163-8.339,12.344-32.718,28-36C295.45,202.371,307.858,213.4,311,229Zm-28-21c-0.289,1.676-11.439,25.632-12,26-3.074,2.015-6.812,1.3-9,4-3.69,4.555-2.915,9.616-10,11-1.846-2.556-7.365-5.459-10-4-6.085.524-9.543,2.676-10,9,4.647,4.606,4.76,14.458,2,21-7.884,3.932-17.085,5.829-17,18,3.07,0.911,5.182,3.067,8,4l13,2c-5.969,18.82,5.266,14.959,8,26,1.159,4.679-3.747,8.8,0,14,1.549,1.049,4.085,1.031,7,1,1.73-3.908,2.534-6.479,8-7,4.305,6.011,17.105,13.083,28,13,3.847-2.81,8.932-.673,14-3,2.461-1.13,4.711-5.62,7-7,2.71-1.634,5.7-1.05,8-3,4.183-3.543,4.145-11.98,9-15,3.809-2.37,7.4,1.41,11,1,8.966-1.022,6.551-12.135,8-18,4.521,1.389,9.38-.577,11-5,4.259-8.043-12.384-7.583-13-22-2.044-2.125-3.074-10.018-2-12,2.282-6.925,7.537-7.078,8-16-4.611-1.573-12.8-1.076-19-1-2.226,1.791-4.8,2-9,2-4.3-5.84-15-11-22-14C299.827,223.848,292.64,208.059,283,208Zm2,46c3.09-.094,6.33-0.14,8,1,8.475,3.652,8.5,14.5,16,18,6.493,3.647,11.105-.843,11,10,0.8,1.18.773,1.681,1,4-5.939,3.085-12.231,4.522-13,13-2.667,4.035-.249,11.675,0,17a18.324,18.324,0,0,1-6,1c-3.78-4.138-11.069-4.985-15-9-7.7,1.768-10.363,6.9-18,9-0.938-2.779-3.352-3.8-4-6q0.5-8,1-16c-2.2-7.691-8.52-12.126-7-22C271.1,269.5,276.288,261.641,285,254Zm0,13c-5.858,6.925-15.051,10.289-15,23,2.792,3.185,1.567,9.163,4,13,1.3,0.877,2.467.894,5,1,5.087-3.371,13.1.635,19,1,2.147-9.625,8.492-12.969,9-24C300.179,276.723,294.4,267.67,285,267Zm57,58H332c-2.621,3.945-3.935,4.483-3,10,3.146,1.489,4.409,2.6,9,3,1.565-1.8,1.966-1.281,3-4C343.373,331.011,342.533,329.144,342,325Zm-35,25c-5.348.319-4.461,1.876-7,3-8.108,3.589-25.267-1.071-32-2-1.441,2.67-1.994,4.221-2,9,3.7,5.579-.413,17.159-1,23a6.1,6.1,0,0,1,2,2c1.754-.631.971-0.193,2-1,8.572-3.619,8.264-15.189,20-16,0.19,0.433,11.8,15.869,12,16l6,1a28.9,28.9,0,0,0,1-9C304.965,371.291,306.867,356.839,307,350Zm78,68h34a14.124,14.124,0,0,1,1,4c-6.439,3.372-20.358,2.122-30,2-0.86-.649-3.144-1.338-4-2C385.2,420.82,385.227,420.319,385,418Z"/>
</svg>
