<svg xmlns="http://www.w3.org/2000/svg" width="56.5" height="56.5" viewBox="0 0 565 565">
  <defs>
    <style>
      .cls-1 {
        fill: #dda833;
        fill-rule: evenodd;
      }
    </style>
  </defs>
  <path class="cls-1" d="M294,66h4c7.425,9.952,25.11,16.91,36,24,24.291,15.814,51.987,28.59,83,38l44,7c10.542,2.323,16.708-2.321,20,7,3.627,5.146,2.016,23.173,2,34-0.023,15.772-4.529,36.193-1,53,2.29,10.906,1.352,27.834-1,38v9c-4.7,18.412-7.11,37.261-14,54-23.064,56.027-55.643,101.323-101,135-4.141,3.075-7.755,8.011-12,11-10.133,7.134-20.814,11.9-32,18-8.339,4.545-16.493,12.913-28,14-5.4-4.287-12.738-5.6-19-9-13.458-7.305-28.116-15.413-41-24-60.586-40.381-126-123.292-126-224V173c0-7.93-2.487-24.315,1-30,1.3-3.851,3.579-4.483,6-7,55.242,1.487,99.786-19.942,134-41C261.329,87.412,285.948,76.5,294,66Zm-1,26c-11.073,11.1-31.928,20.839-47,28-32.507,15.445-67.373,34.724-115,35-5.446,10.512-2.12,35.637-2,50-3.391,5.254,0,19.108,0,27,0,28.082.856,52.865,8,73,5.9,16.618,7.752,31.166,15,46,21.552,44.112,54.765,82.423,96,107,13.729,8.183,31.666,25.783,52,26,6.058-6.11,16.553-8.327,24-13,13.778-8.646,27.04-19.22,40-29,7.848-5.922,16.01-15.073,22-23,8.327-11.021,19.856-20.4,28-32,31.207-44.439,48-93.287,48-170,0-19.56,2.318-43.253-1-61h-2c-7.517-4.364-29.214-2.855-39-6-37.127-11.931-66.586-23.434-96-42-8.1-5.11-19.629-8.276-25-16h-6Zm0,104c2.328,0.195,2.826.193,4,1,10.087,3.486,18.911,37.218,24,48a295.148,295.148,0,0,1,50,6c3.249,4.992,5.439,7.362,5,14-6.764,5.044-37.484,31.925-38,40,2.83,3.841,9.4,38.17,10,45-4.182,4.312-4.154,7.868-13,8-3.707-4.564-35.059-23.8-43-24-10.336,10.116-29.725,14.1-40,24-7.831-1.517-11.345-5.059-11-15,3.1-4.174,9.732-36.332,10-44-14.035-9.062-24.993-23.662-37-35v-5c2.965-2.834,6.186-6.021,9-9,9.381,0.169,40.28-1.232,46-5C280.284,232.484,279.544,208.993,293,196Zm-57,67v4c6.379,4.087,29.7,23.588,31,31-2.5,4-7.783,31.584-8,38h5c3.57-5,25.83-18.855,33-20,3.1,3.95,25.631,19.088,31,20a21.509,21.509,0,0,0,1-7c-5.1-7.439-5.091-24.577-7-34,4.611-3.342,30.467-26.38,31-31a18.324,18.324,0,0,0-6-1c-3.207,1.926-27.654-1.879-35-2-3.039-7.216-12.09-37.158-19-38v1h-1c-0.239,4.851-12.88,36-15,37h-9C263.489,263.862,243.584,263.1,236,263Z"/>
</svg>
